<svg width="31" height="21" viewBox="0 0 31 21" fill="none" xmlns="http://www.w3.org/2000/svg">
<path d="M15.9409 20.8665C12.5188 20.7619 9.26438 20.6805 6.01 20.5584C5.30878 20.5293 4.59557 20.4246 3.91233 20.2676C2.62976 19.9769 1.74275 19.2268 1.28725 17.9998C0.921662 17.0113 0.789809 15.9937 0.693915 14.9587C0.484149 12.5281 0.484149 10.0975 0.586035 7.66694C0.645969 6.29464 0.681929 4.91072 1.05951 3.57913C1.28726 2.7825 1.56295 2.00331 2.22821 1.42765C2.92943 0.817094 3.75051 0.450761 4.68547 0.410057C7.25062 0.287946 9.80977 0.136762 12.3749 0.113502C15.8271 0.0786135 19.2852 0.125132 22.7374 0.189095C24.2297 0.218169 25.7341 0.293762 27.2144 0.479835C28.5689 0.65428 29.5818 1.38694 30.1212 2.6662C30.5347 3.6489 30.6905 4.67813 30.7804 5.72479C31.0142 8.34727 31.0202 10.9697 30.8883 13.5922C30.8224 14.9238 30.7565 16.2612 30.3669 17.5579C29.9234 19.0465 28.9824 20.0292 27.4122 20.3665C26.8009 20.4944 26.1656 20.5409 25.5423 20.5642C22.2819 20.6747 19.0275 20.7735 15.9409 20.8665ZM12.6266 14.2551C15.3596 12.8828 18.0626 11.5222 20.8195 10.1324C18.0686 8.73686 15.3656 7.37038 12.6266 5.98064C12.6266 8.7543 12.6266 11.4814 12.6266 14.2551Z" fill="white" fill-opacity="0.6"/>
</svg>
