<svg width="26" height="26" viewBox="0 0 26 26" fill="none" xmlns="http://www.w3.org/2000/svg">
<g clip-path="url(#clip0_139_87)">
<path fill-rule="evenodd" clip-rule="evenodd" d="M13.291 25.252C6.41013 25.252 0.832031 19.6739 0.832031 12.793C0.832031 5.91208 6.41013 0.333984 13.291 0.333984C20.1719 0.333984 25.75 5.91208 25.75 12.793C25.75 19.6739 20.1719 25.252 13.291 25.252ZM13.7017 19.7246C17.7864 19.7229 21.1085 16.4 21.1101 12.3162C21.111 10.3366 20.341 8.47531 18.9423 7.07502C17.5436 5.67469 15.6835 4.90314 13.7016 4.90228C9.61811 4.90228 6.29468 8.22556 6.29301 12.3103C6.29249 13.616 6.63361 14.8905 7.28195 16.014L6.23093 19.8531L10.1583 18.8229C11.2404 19.4131 12.4587 19.7242 13.6986 19.7246H13.7017Z" fill="white" fill-opacity="0.6"/>
<path fill-rule="evenodd" clip-rule="evenodd" d="M10.3393 17.4824L8.00878 18.0937L8.63085 15.8214L8.48445 15.5885C7.86804 14.6081 7.5425 13.475 7.54297 12.3115C7.54432 8.9164 10.3066 6.1543 13.7032 6.1543C15.3479 6.15487 16.894 6.79619 18.0565 7.96012C19.2191 9.12405 19.859 10.6711 19.8584 12.3165C19.857 15.7118 17.0947 18.4742 13.7008 18.4742H13.6983C12.5933 18.4737 11.5096 18.1769 10.5642 17.6158L10.3393 17.4824ZM17.4331 14.0786C17.3869 14.0014 17.2635 13.9551 17.0784 13.8624C16.8932 13.7697 15.9832 13.322 15.8135 13.2601C15.6438 13.1983 15.5203 13.1675 15.397 13.3527C15.2736 13.5381 14.9188 13.9551 14.8108 14.0786C14.7028 14.2021 14.5948 14.2176 14.4098 14.1249C14.2247 14.0323 13.6282 13.8368 12.9212 13.2061C12.3708 12.7153 11.9993 12.1091 11.8913 11.9238C11.7833 11.7385 11.8798 11.6383 11.9725 11.546C12.0558 11.463 12.1576 11.3297 12.2502 11.2217C12.3427 11.1136 12.3736 11.0364 12.4353 10.9129C12.497 10.7893 12.4661 10.6812 12.4198 10.5886C12.3736 10.4959 12.0033 9.58472 11.8491 9.21407C11.6988 8.85312 11.5463 8.90202 11.4326 8.89631C11.3247 8.89091 11.2012 8.88977 11.0778 8.88977C10.9544 8.88977 10.7539 8.93608 10.5842 9.12141C10.4145 9.30673 9.93629 9.75458 9.93629 10.6657C9.93629 11.5769 10.5996 12.4571 10.6922 12.5806C10.7847 12.7042 11.9975 14.5739 13.8544 15.3758C14.2961 15.5665 14.6409 15.6804 14.9098 15.7657C15.3532 15.9066 15.7568 15.8867 16.0757 15.839C16.4314 15.7859 17.1709 15.3913 17.3252 14.9589C17.4794 14.5264 17.4794 14.1558 17.4331 14.0786Z" fill="white" fill-opacity="0.6"/>
</g>
<defs>
<clipPath id="clip0_139_87">
<rect width="24.918" height="24.918" fill="white" transform="translate(0.832031 0.333984)"/>
</clipPath>
</defs>
</svg>
