<svg width="26" height="26" viewBox="0 0 26 26" fill="none" xmlns="http://www.w3.org/2000/svg">
<g clip-path="url(#clip0_139_81)">
<path fill-rule="evenodd" clip-rule="evenodd" d="M0.355469 12.793C0.355469 5.91208 5.93357 0.333984 12.8145 0.333984C19.6954 0.333984 25.2734 5.91208 25.2734 12.793C25.2734 19.6739 19.6954 25.252 12.8145 25.252C5.93357 25.252 0.355469 19.6739 0.355469 12.793ZM12.8151 6.14818C11.0104 6.14818 10.784 6.15607 10.0752 6.18831C9.36778 6.2207 8.88494 6.33273 8.46243 6.49703C8.02538 6.66673 7.65467 6.8938 7.28531 7.26326C6.9157 7.63262 6.68863 8.00332 6.51836 8.44022C6.35364 8.86289 6.24151 9.34588 6.20969 10.053C6.17797 10.7618 6.16966 10.9884 6.16966 12.793C6.16966 14.5977 6.17771 14.8235 6.20979 15.5322C6.24234 16.2396 6.35432 16.7225 6.51852 17.145C6.68837 17.5821 6.91539 17.9528 7.2849 18.3221C7.6541 18.6917 8.02481 18.9193 8.4616 19.0891C8.88437 19.2534 9.36737 19.3654 10.0746 19.3977C10.7834 19.43 11.0098 19.4379 12.8142 19.4379C14.619 19.4379 14.8448 19.43 15.5536 19.3977C16.261 19.3654 16.7444 19.2534 17.1672 19.0891C17.6041 18.9193 17.9742 18.6917 18.3434 18.3221C18.7131 17.9528 18.9401 17.5821 19.1104 17.1452C19.2738 16.7225 19.3859 16.2395 19.4191 15.5324C19.4509 14.8236 19.4593 14.5977 19.4593 12.793C19.4593 10.9884 19.4509 10.762 19.4191 10.0531C19.3859 9.34573 19.2738 8.86289 19.1104 8.44037C18.9401 8.00332 18.7131 7.63262 18.3434 7.26326C17.9738 6.89364 17.6042 6.66663 17.1668 6.49703C16.7431 6.33273 16.26 6.2207 15.5526 6.18831C14.8438 6.15607 14.6182 6.14818 12.813 6.14818H12.8151Z" fill="white" fill-opacity="0.6"/>
<path fill-rule="evenodd" clip-rule="evenodd" d="M12.2185 7.34541C12.3954 7.34515 12.5928 7.34541 12.8146 7.34541C14.5887 7.34541 14.799 7.3518 15.4996 7.38362C16.1475 7.41326 16.4992 7.5215 16.7334 7.61245C17.0435 7.73289 17.2646 7.87684 17.497 8.10941C17.7295 8.34198 17.8735 8.56349 17.9942 8.87361C18.0852 9.10753 18.1936 9.45918 18.2231 10.1071C18.2549 10.8075 18.2618 11.018 18.2618 12.7913C18.2618 14.5646 18.2549 14.7751 18.2231 15.4755C18.1934 16.1234 18.0852 16.4751 17.9942 16.709C17.8738 17.0191 17.7295 17.2399 17.497 17.4723C17.2644 17.7049 17.0436 17.8489 16.7334 17.9693C16.4994 18.0607 16.1475 18.1686 15.4996 18.1983C14.7992 18.2301 14.5887 18.237 12.8146 18.237C11.0403 18.237 10.83 18.2301 10.1295 18.1983C9.48163 18.1684 9.12998 18.0601 8.89565 17.9691C8.58552 17.8487 8.36401 17.7048 8.13144 17.4722C7.89887 17.2396 7.75492 17.0187 7.63422 16.7085C7.54327 16.4745 7.43488 16.1229 7.40539 15.475C7.37352 14.7745 7.36719 14.5641 7.36719 12.7896C7.36719 11.0152 7.37352 10.8058 7.40539 10.1054C7.43499 9.45752 7.54327 9.10587 7.63422 8.87164C7.75466 8.56156 7.89887 8.34005 8.13144 8.10749C8.36401 7.87492 8.58552 7.73097 8.89565 7.61022C9.12988 7.51885 9.48163 7.41087 10.1295 7.38113C10.7425 7.35346 10.98 7.34515 12.2185 7.34375V7.34541ZM16.3615 8.44871C15.9213 8.44871 15.5642 8.8055 15.5642 9.24582C15.5642 9.68604 15.9213 10.0432 16.3615 10.0432C16.8018 10.0432 17.1589 9.68604 17.1589 9.24582C17.1589 8.80561 16.8018 8.44871 16.3615 8.44871ZM12.8146 9.38038C10.93 9.38038 9.40216 10.9083 9.40216 12.7928C9.40216 14.6773 10.93 16.2045 12.8146 16.2045C14.6991 16.2045 16.2264 14.6773 16.2264 12.7928C16.2264 10.9083 14.6991 9.38038 12.8146 9.38038Z" fill="white" fill-opacity="0.6"/>
<path fill-rule="evenodd" clip-rule="evenodd" d="M12.8165 10.5781C14.0397 10.5781 15.0315 11.5698 15.0315 12.7931C15.0315 14.0163 14.0397 15.008 12.8165 15.008C11.5931 15.008 10.6016 14.0163 10.6016 12.7931C10.6016 11.5698 11.5931 10.5781 12.8165 10.5781Z" fill="white" fill-opacity="0.6"/>
</g>
<defs>
<clipPath id="clip0_139_81">
<rect width="24.918" height="24.918" fill="white" transform="translate(0.355469 0.333984)"/>
</clipPath>
</defs>
</svg>
