<svg width="31" height="32" viewBox="0 0 31 32" fill="none" xmlns="http://www.w3.org/2000/svg">
<path d="M2.63072 7.52148C3.62369 7.52148 5.13678 7.52148 5.9879 7.52148C6.41346 7.52148 6.74445 7.80519 6.8863 8.18346C7.31186 9.41286 8.25754 12.1081 9.34508 13.9521C10.8109 16.3636 11.7566 17.262 12.3713 17.1675C12.986 17.0256 12.7968 15.418 12.7968 14.1413C12.7968 12.8646 12.9387 10.6895 12.324 9.69656L11.3783 8.32532C11.1419 7.99433 11.3783 7.56877 11.7566 7.56877H17.147C17.6671 7.56877 18.0927 7.99433 18.0927 8.51445V15.3707C18.0927 15.3707 18.3291 16.6001 19.6531 15.3234C20.977 14.0467 22.3955 11.6825 23.5776 9.271L24.0505 8.13618C24.1923 7.80519 24.5233 7.56877 24.9016 7.56877H28.4006C29.0626 7.56877 29.5355 8.23075 29.299 8.84544L28.9208 9.83841C28.9208 9.83841 27.6441 12.3918 26.3201 14.1886C24.9962 16.0327 24.7125 16.4582 24.9016 16.9311C25.0907 17.4039 28.4952 20.5719 29.3463 22.085C29.5828 22.5106 29.7719 22.8889 29.961 23.2199C30.292 23.8346 29.8192 24.6384 29.1099 24.6384H25.138C24.807 24.6384 24.476 24.4493 24.3342 24.1655L23.9559 23.5509C23.9559 23.5509 21.5444 20.7138 20.0786 19.8154C18.5655 18.9643 18.6128 20.1937 18.6128 20.1937V22.6997C18.6128 23.74 17.7617 24.5911 16.7214 24.5911H15.7757C15.7757 24.5911 10.5745 24.5911 6.41346 18.3969C3.15084 13.5739 2.06331 10.4531 1.68503 8.65631C1.59046 8.0889 2.01602 7.52148 2.63072 7.52148Z" fill="white" fill-opacity="0.6"/>
</svg>
