<svg width="35" height="35" viewBox="0 0 35 35" fill="none" xmlns="http://www.w3.org/2000/svg">
<circle cx="17.5" cy="17.5" r="17.5" fill="white"/>
<path d="M8 17.5C8 12.2533 12.2533 8 17.5 8C22.7467 8 27 12.2533 27 17.5C27 22.7467 22.7467 27 17.5 27C12.2533 27 8 22.7467 8 17.5Z" fill="black"/>
<path fill-rule="evenodd" clip-rule="evenodd" d="M17.3078 8C17.2629 11.9084 17.0073 14.0957 15.5515 15.5515C14.0957 17.0073 11.9084 17.2629 8 17.3078V17.8749C11.9084 17.9198 14.0957 18.1754 15.5515 19.6312C16.9845 21.0642 17.2546 23.2059 17.3055 27H17.8772C17.9281 23.2059 18.1982 21.0642 19.6312 19.6312C21.0642 18.1982 23.2059 17.9281 27 17.8772V17.3055C23.2059 17.2546 21.0642 16.9845 19.6312 15.5515C18.1754 14.0957 17.9198 11.9084 17.8749 8H17.3078Z" fill="white"/>
</svg>
