<svg width="35" height="35" viewBox="0 0 35 35" fill="none" xmlns="http://www.w3.org/2000/svg">
<circle cx="17.5" cy="17.5" r="17.5" fill="white"/>
<g clip-path="url(#clip0_217_142)">
<path d="M14.9696 18.1944C13.3986 18.1944 12.1294 19.4635 12.1527 21.019C12.1681 22.0173 12.7176 22.8841 13.5263 23.3677C13.2516 22.946 13.0891 22.4468 13.0813 21.909C13.0581 20.3535 14.3273 19.0843 15.8982 19.0843C16.2078 19.0843 16.5057 19.1346 16.7843 19.2236V16.1087C16.4941 16.0662 16.1962 16.043 15.8982 16.043C15.8828 16.043 15.8711 16.043 15.8557 16.043V18.3337C15.5771 18.2447 15.2791 18.1944 14.9696 18.1944Z" fill="#F00044"/>
<path d="M21.7616 8.85352H21.7384H20.9336C21.1658 10.0182 21.8197 11.032 22.7329 11.7207C22.1331 10.9275 21.7694 9.93695 21.7616 8.85352Z" fill="#F00044"/>
<path d="M26.4965 13.5929C26.1908 13.5929 25.8967 13.562 25.6065 13.5078V15.7405C24.554 15.7405 23.5325 15.5354 22.5729 15.1252C21.9538 14.8621 21.3772 14.5255 20.8471 14.1192L20.8626 21.0028C20.8549 22.5506 20.2435 24.0016 19.1369 25.0967C18.2353 25.9866 17.0938 26.5554 15.8556 26.7373C15.5654 26.7798 15.2675 26.8031 14.9695 26.8031C13.6462 26.8031 12.3848 26.3736 11.3594 25.5803C11.4755 25.7196 11.5993 25.8551 11.7347 25.9866C12.8491 27.0855 14.3272 27.693 15.902 27.693C16.2 27.693 16.4979 27.6698 16.7881 27.6272C18.0263 27.4454 19.1678 26.8766 20.0694 25.9866C21.176 24.8916 21.7874 23.4406 21.7951 21.8928L21.7371 15.0091C22.2633 15.4154 22.8399 15.7559 23.4629 16.0152C24.4263 16.4215 25.4479 16.6304 26.4965 16.6304" fill="#F00044"/>
<path d="M11.7209 17.7564C12.8237 16.6614 14.2902 16.0539 15.8534 16.0423V15.2181C15.5632 15.1756 15.2653 15.1523 14.9673 15.1523C13.3886 15.1523 11.9066 15.7598 10.7922 16.8665C9.69721 17.9538 9.07037 19.4396 9.07424 20.9835C9.07424 22.539 9.68947 23.9978 10.8 25.1006C10.978 25.2747 11.1598 25.4372 11.3533 25.5842C10.4788 24.5434 10.0029 23.2433 9.99902 21.8735C10.0029 20.3296 10.6259 18.8438 11.7209 17.7564Z" fill="#08FFF9"/>
<path d="M25.6055 13.5084V12.6803H25.5977C24.522 12.6803 23.5315 12.3243 22.7344 11.7207C23.427 12.6339 24.4408 13.2839 25.6055 13.5084Z" fill="#08FFF9"/>
<path d="M15.7367 24.6477C16.1043 24.6671 16.4564 24.6168 16.7815 24.5123C17.9036 24.1447 18.7123 23.1 18.7123 21.8695L18.7162 17.2649V8.85285H20.9295C20.8714 8.56265 20.8405 8.26857 20.8366 7.96289H17.7875V16.3711L17.7836 20.9757C17.7836 22.2061 16.9749 23.2509 15.8528 23.6185C15.5278 23.7268 15.1757 23.7771 14.8081 23.7539C14.3399 23.7268 13.9026 23.5875 13.5234 23.3631C13.9994 24.0983 14.8119 24.5974 15.7367 24.6477Z" fill="#08FFF9"/>
<path d="M15.8545 26.7379C17.0927 26.556 18.2341 25.9872 19.1357 25.0973C20.2424 24.0022 20.8537 22.5512 20.8615 21.0034L20.846 14.1198C21.3722 14.5261 21.9488 14.8666 22.5717 15.1258C23.5352 15.5321 24.5567 15.741 25.6053 15.741V13.5084C24.4407 13.284 23.4269 12.6339 22.7342 11.7207C21.8211 11.032 21.1633 10.0182 20.935 8.85352H18.7178V17.2617L18.7139 21.8663C18.7139 23.0968 17.9052 24.1415 16.7831 24.5091C16.4581 24.6174 16.106 24.6678 15.7384 24.6445C14.8097 24.5942 14.001 24.0951 13.5251 23.3638C12.7164 22.884 12.1669 22.0133 12.1514 21.015C12.1282 19.4595 13.3974 18.1904 14.9684 18.1904C15.2779 18.1904 15.5759 18.2407 15.8545 18.3297V16.039C14.2912 16.0506 12.8247 16.6581 11.7219 17.7531C10.6269 18.8404 10.0001 20.3263 10.0039 21.8663C10.0039 23.2361 10.4799 24.5362 11.3582 25.5771C12.3875 26.3703 13.645 26.7998 14.9684 26.7998C15.2663 26.8037 15.5642 26.7804 15.8545 26.7379Z" fill="black"/>
</g>
<defs>
<clipPath id="clip0_217_142">
<rect width="19.8113" height="19.8113" fill="white" transform="translate(7.92188 7.92383)"/>
</clipPath>
</defs>
</svg>
