<svg width="35" height="35" viewBox="0 0 35 35" fill="none" xmlns="http://www.w3.org/2000/svg">
<circle cx="17.5" cy="17.5" r="17.5" fill="#FF9800"/>
<path d="M17.4996 18.4914C20.4312 18.4914 22.8078 16.1149 22.8078 13.1832C22.8078 10.2515 20.4313 7.875 17.4996 7.875C14.5679 7.875 12.1914 10.2516 12.1914 13.1832C12.195 16.1134 14.5695 18.4878 17.4996 18.4914ZM17.4996 10.3249C19.0782 10.3249 20.3579 11.6046 20.3579 13.1832C20.3579 14.7618 19.0782 16.0415 17.4996 16.0415C15.921 16.0415 14.6413 14.7618 14.6413 13.1832C14.6413 11.6046 15.921 10.3249 17.4996 10.3249Z" fill="white"/>
<path d="M22.6996 21.0074C23.2765 20.6275 23.624 19.9832 23.6249 19.2925C23.6329 18.7192 23.3094 18.1927 22.7943 17.9409C22.2651 17.6766 21.6317 17.7361 21.161 18.0944C18.9797 19.6847 16.0211 19.6847 13.8398 18.0944C13.3684 17.738 12.736 17.6785 12.2065 17.9409C11.6916 18.1927 11.368 18.7186 11.3751 19.2916C11.3763 19.9823 11.7238 20.6263 12.3004 21.0066C13.0401 21.4985 13.8457 21.8834 14.6932 22.1499C14.8369 22.1945 14.9853 22.2359 15.1383 22.2741L12.6704 24.6873C12.023 25.3154 12.0073 26.3494 12.6355 26.9968C13.2636 27.6442 14.2976 27.6599 14.945 27.0317C14.9585 27.0186 14.9718 27.0054 14.9848 26.9918L17.5001 24.3883L20.0203 26.9967C20.6479 27.6446 21.6819 27.6611 22.3298 27.0335C22.9777 26.4059 22.9941 25.3718 22.3665 24.7239C22.3534 24.7104 22.34 24.6971 22.3265 24.684L19.8626 22.2732C20.0156 22.234 20.1645 22.1924 20.3093 22.1483C21.1559 21.8828 21.9607 21.4987 22.6996 21.0074Z" fill="white"/>
</svg>
