<svg width="35" height="35" viewBox="0 0 35 35" fill="none" xmlns="http://www.w3.org/2000/svg">
<path d="M17.5 35C27.165 35 35 27.165 35 17.5C35 7.83502 27.165 0 17.5 0C7.83502 0 0 7.83502 0 17.5C0 27.165 7.83502 35 17.5 35Z" fill="#2372C5"/>
<path fill-rule="evenodd" clip-rule="evenodd" d="M16.8364 25.1753H18.2099C18.2099 25.1753 18.6248 25.1297 18.8367 24.9014C19.0316 24.6918 19.0254 24.2981 19.0254 24.2981C19.0254 24.2981 18.9986 22.4551 19.8539 22.1837C20.6972 21.9163 21.7799 23.9649 22.9276 24.7526C23.7955 25.3487 24.455 25.218 24.455 25.218L27.5236 25.1753C27.5236 25.1753 29.129 25.0764 28.3678 23.8142C28.3054 23.711 27.9245 22.8806 26.0862 21.1742C24.162 19.3882 24.4197 19.6771 26.7375 16.5878C28.1491 14.7064 28.7134 13.5578 28.5372 13.0659C28.369 12.5973 27.3309 12.7212 27.3309 12.7212L23.8757 12.7427C23.8757 12.7427 23.6195 12.7077 23.4296 12.8213C23.2439 12.9327 23.1245 13.1922 23.1245 13.1922C23.1245 13.1922 22.5776 14.6481 21.8483 15.8862C20.3097 18.4989 19.6945 18.6367 19.4431 18.4745C18.8582 18.0964 19.0042 16.9556 19.0042 16.1452C19.0042 13.6133 19.3882 12.5577 18.2564 12.2844C17.8808 12.1936 17.6044 12.1337 16.6439 12.1241C15.4111 12.1113 14.3676 12.1278 13.7768 12.4173C13.3837 12.6098 13.0805 13.0387 13.2652 13.0634C13.4935 13.0939 14.0107 13.2028 14.2849 13.5762C14.639 14.0579 14.6265 15.1397 14.6265 15.1397C14.6265 15.1397 14.8299 18.1201 14.1514 18.4904C13.6857 18.7444 13.0468 18.2259 11.6751 15.8557C10.9723 14.6415 10.4417 13.2995 10.4417 13.2995C10.4417 13.2995 10.3393 13.0487 10.1568 12.9146C9.93536 12.752 9.6259 12.7003 9.6259 12.7003L6.34259 12.7218C6.34259 12.7218 5.8497 12.7355 5.66876 12.9498C5.5078 13.1404 5.65597 13.5347 5.65597 13.5347C5.65597 13.5347 8.22648 19.5486 11.137 22.5792C13.8058 25.3578 16.8364 25.1753 16.8364 25.1753Z" fill="white"/>
</svg>
