<svg width="35" height="35" viewBox="0 0 35 35" fill="none" xmlns="http://www.w3.org/2000/svg">
<path d="M17.5 35C27.165 35 35 27.165 35 17.5C35 7.83502 27.165 0 17.5 0C7.83502 0 0 7.83502 0 17.5C0 27.165 7.83502 35 17.5 35Z" fill="#039BE5"/>
<path d="M8.00699 17.1204L24.8799 10.6148C25.663 10.3319 26.347 10.8058 26.0932 11.99L26.0947 11.9885L23.2218 25.5233C23.0089 26.4829 22.4387 26.7162 21.641 26.2642L17.266 23.0398L15.1557 25.0727C14.9224 25.306 14.7255 25.5029 14.2735 25.5029L14.5841 21.0506L22.6924 13.7254C23.0453 13.4148 22.6137 13.2398 22.1484 13.5489L12.1282 19.8577L7.80866 18.5102C6.87095 18.2127 6.85053 17.5725 8.00699 17.1204Z" fill="white"/>
</svg>
