<svg width="35" height="35" viewBox="0 0 35 35" fill="none" xmlns="http://www.w3.org/2000/svg">
<circle cx="17.5" cy="17.5" r="17.5" fill="white"/>
<path d="M29.1826 17.9858C29.1826 11.7675 24.1416 6.72656 17.9233 6.72656C11.705 6.72656 6.66406 11.7675 6.66406 17.9858C6.66406 24.2041 11.705 29.2451 17.9233 29.2451C24.1416 29.2451 29.1826 24.2041 29.1826 17.9858Z" stroke="url(#paint0_linear_217_183)"/>
<path d="M21.7667 12.0288C21.984 11.9893 22.1766 12.0387 22.3445 12.1769C22.5124 12.3152 22.5964 12.493 22.5964 12.7103V20.3103C22.5964 21.0115 22.3988 21.5597 22.0038 21.9547C21.6087 22.3399 21.0655 22.5325 20.3741 22.5325C19.9001 22.5325 19.5099 22.409 19.2038 22.1621C18.8976 21.9053 18.7445 21.5843 18.7445 21.1992C18.7445 20.7152 18.9371 20.3103 19.3223 19.9843C19.7075 19.6584 20.2062 19.4955 20.8186 19.4955C21.0457 19.4955 21.2877 19.535 21.5445 19.614C21.5544 19.614 21.5643 19.609 21.5741 19.5992C21.584 19.5992 21.589 19.5942 21.589 19.5843V14.6955C21.589 14.6658 21.5741 14.6411 21.5445 14.6214C21.5149 14.5918 21.4852 14.5819 21.4556 14.5918L15.9001 15.6584C15.821 15.6782 15.7815 15.7275 15.7815 15.8066V21.7918C15.7815 22.493 15.584 23.0411 15.1889 23.4362C14.7939 23.8214 14.2507 24.014 13.5593 24.014C13.0852 24.014 12.6951 23.8856 12.3889 23.6288C12.0828 23.3819 11.9297 23.0658 11.9297 22.6806C11.9297 22.1967 12.1223 21.7918 12.5075 21.4658C12.8927 21.1399 13.3914 20.9769 14.0038 20.9769C14.2309 20.9769 14.4729 21.0164 14.7297 21.0955C14.7396 21.0955 14.7495 21.0905 14.7593 21.0806C14.7692 21.0806 14.7741 21.0757 14.7741 21.0658V14.1918C14.7741 13.9448 14.8482 13.7275 14.9964 13.5399C15.1544 13.3424 15.3519 13.2238 15.5889 13.1843L21.7667 12.0288Z" fill="url(#paint1_linear_217_183)"/>
<defs>
<linearGradient id="paint0_linear_217_183" x1="28.7233" y1="28.4599" x2="9.15294" y2="6.32657" gradientUnits="userSpaceOnUse">
<stop stop-color="#5AC8FA"/>
<stop offset="0.523465" stop-color="#AF52DE" stop-opacity="0.922227"/>
<stop offset="0.818643" stop-color="#FF2D55" stop-opacity="0.74"/>
<stop offset="1" stop-color="#FF3B30"/>
</linearGradient>
<linearGradient id="paint1_linear_217_183" x1="7.03958" y1="7.56953" x2="27.6618" y2="28.4288" gradientUnits="userSpaceOnUse">
<stop offset="0.0635411" stop-color="#FB413E"/>
<stop offset="0.381554" stop-color="#FF3C32"/>
<stop offset="0.520016" stop-color="#AD69E3" stop-opacity="0.75"/>
<stop offset="0.629314" stop-color="#5DC4F9"/>
<stop offset="0.962717" stop-color="#60C2F8"/>
</linearGradient>
</defs>
</svg>
