<svg width="35" height="35" viewBox="0 0 35 35" fill="none" xmlns="http://www.w3.org/2000/svg">
<circle cx="17.5" cy="17.5" r="17.5" fill="white"/>
<path d="M10.9435 8.45397C12.7091 7.14563 14.796 6.35473 16.971 6.1582V9.75727C15.565 9.93954 14.2223 10.4778 13.0738 11.3289C11.6356 12.3945 10.578 13.8942 10.0569 15.6066C9.53587 17.3191 9.57896 19.1536 10.1798 20.8397C10.7807 22.5258 11.9075 23.9742 13.3941 24.9711C14.8807 25.9681 16.6483 26.4609 18.4363 26.377C20.2243 26.2929 21.9379 25.6365 23.3245 24.5045C24.711 23.3725 25.697 21.8248 26.1372 20.0899C26.4442 18.8797 26.4742 17.623 26.2337 16.4115L29.256 13.9818L29.254 13.9622C30.0698 16.2064 30.1945 18.6479 29.6055 20.9697C28.9767 23.4482 27.5681 25.6591 25.5873 27.2763C23.6065 28.8933 21.1585 29.8311 18.6043 29.9511C16.05 30.0711 13.5248 29.3671 11.4011 27.9428C9.2774 26.5186 7.66764 24.4495 6.80927 22.0408C5.9509 19.6321 5.88936 17.0113 6.63373 14.565C7.37809 12.1187 8.88895 9.97634 10.9435 8.45397Z" fill="#FCCA00"/>
<path d="M26.9763 10.1327L26.989 10.1645L24.9693 13.3722C24.2348 12.2838 23.2506 11.3779 22.0988 10.7366V18.0364C22.0988 20.2761 20.2832 22.0917 18.0435 22.0917C15.8039 22.0917 13.9883 20.2761 13.9883 18.0364C13.9883 15.7968 15.8039 13.9812 18.0435 13.9812C18.8829 13.9812 19.6627 14.2362 20.3097 14.673V6.32422C22.9426 6.83062 25.2674 8.20274 26.9763 10.1327Z" fill="#FC3F1D"/>
</svg>
