<svg width="97" height="16" viewBox="0 0 97 16" fill="none" xmlns="http://www.w3.org/2000/svg">
<path d="M3.60207 3.76044C4.6422 3.76044 5.48539 2.92023 5.48539 1.88376C5.48539 0.847299 4.6422 0.00708008 3.60207 0.00708008C2.56194 0.00708008 1.71875 0.847299 1.71875 1.88376C1.71875 2.92023 2.56194 3.76044 3.60207 3.76044Z" fill="#121312" fill-opacity="0.3"/>
<path d="M6.42398 9.81293L5.99552 5.54442C5.9475 5.06211 5.54447 4.69897 5.05951 4.69897H2.14507C1.65918 4.69897 1.25615 5.06211 1.20812 5.54348L0.779668 9.81293C0.766484 9.94524 0.809801 10.0757 0.899258 10.1751C0.987774 10.2727 1.1149 10.329 1.24767 10.329H1.76276L2.14884 14.1762C2.19687 14.6566 2.60084 15.0207 3.08674 15.0207H4.11785C4.60375 15.0207 5.00678 14.6566 5.05481 14.1762L5.44089 10.329H5.95597C6.08969 10.329 6.21587 10.2727 6.30533 10.1751C6.39479 10.0766 6.4381 9.94524 6.42398 9.81293Z" fill="#121312" fill-opacity="0.3"/>
<path d="M13.645 3.76044C14.6852 3.76044 15.5284 2.92023 15.5284 1.88376C15.5284 0.847299 14.6852 0.00708008 13.645 0.00708008C12.6049 0.00708008 11.7617 0.847299 11.7617 1.88376C11.7617 2.92023 12.6049 3.76044 13.645 3.76044Z" fill="#121312" fill-opacity="0.3"/>
<path d="M16.4669 9.81293L16.0385 5.54442C15.9905 5.06211 15.5874 4.69897 15.1025 4.69897H12.188C11.7021 4.69897 11.2991 5.06211 11.2511 5.54348L10.8226 9.81293C10.8095 9.94524 10.8528 10.0757 10.9422 10.1751C11.0307 10.2727 11.1579 10.329 11.2906 10.329H11.8057L12.1918 14.1762C12.2398 14.6566 12.6438 15.0207 13.1297 15.0207H14.1608C14.6467 15.0207 15.0497 14.6566 15.0978 14.1762L15.4839 10.329H15.9989C16.1327 10.329 16.2588 10.2727 16.3483 10.1751C16.4378 10.0766 16.4811 9.94524 16.4669 9.81293Z" fill="#121312" fill-opacity="0.3"/>
<path d="M23.6919 3.76044C24.732 3.76044 25.5752 2.92023 25.5752 1.88376C25.5752 0.847299 24.732 0.00708008 23.6919 0.00708008C22.6518 0.00708008 21.8086 0.847299 21.8086 1.88376C21.8086 2.92023 22.6518 3.76044 23.6919 3.76044Z" fill="#121312" fill-opacity="0.3"/>
<path d="M26.5138 9.81293L26.0854 5.54442C26.0373 5.06211 25.6343 4.69897 25.1494 4.69897H22.2349C21.749 4.69897 21.346 5.06211 21.298 5.54348L20.8695 9.81293C20.8563 9.94524 20.8996 10.0757 20.9891 10.1751C21.0776 10.2727 21.2047 10.329 21.3375 10.329H21.8526L22.2387 14.1762C22.2867 14.6566 22.6907 15.0207 23.1766 15.0207H24.2077C24.6936 15.0207 25.0966 14.6566 25.1446 14.1762L25.5307 10.329H26.0458C26.1795 10.329 26.3057 10.2727 26.3952 10.1751C26.4846 10.0766 26.5279 9.94524 26.5138 9.81293Z" fill="#121312" fill-opacity="0.3"/>
<path d="M33.7349 3.76044C34.775 3.76044 35.6182 2.92023 35.6182 1.88376C35.6182 0.847299 34.775 0.00708008 33.7349 0.00708008C32.6948 0.00708008 31.8516 0.847299 31.8516 1.88376C31.8516 2.92023 32.6948 3.76044 33.7349 3.76044Z" fill="#121312" fill-opacity="0.3"/>
<path d="M36.5568 9.81293L36.1283 5.54442C36.0803 5.06211 35.6773 4.69897 35.1923 4.69897H32.2779C31.792 4.69897 31.389 5.06211 31.3409 5.54348L30.9125 9.81293C30.8993 9.94524 30.9426 10.0757 31.0321 10.1751C31.1206 10.2727 31.2477 10.329 31.3805 10.329H31.8956L32.2817 14.1762C32.3297 14.6566 32.7337 15.0207 33.2195 15.0207H34.2507C34.7366 15.0207 35.1396 14.6566 35.1876 14.1762L35.5737 10.329H36.0888C36.2225 10.329 36.3487 10.2727 36.4381 10.1751C36.5276 10.0766 36.5709 9.94524 36.5568 9.81293Z" fill="#121312" fill-opacity="0.3"/>
<path d="M43.8247 3.76044C44.8649 3.76044 45.708 2.92023 45.708 1.88376C45.708 0.847299 44.8649 0.00708008 43.8247 0.00708008C42.7846 0.00708008 41.9414 0.847299 41.9414 1.88376C41.9414 2.92023 42.7846 3.76044 43.8247 3.76044Z" fill="#121312" fill-opacity="0.3"/>
<path d="M46.6466 9.81293L46.2182 5.54442C46.1702 5.06211 45.7671 4.69897 45.2822 4.69897H42.3677C41.8818 4.69897 41.4788 5.06211 41.4308 5.54348L41.0023 9.81293C40.9891 9.94524 41.0325 10.0757 41.1219 10.1751C41.2104 10.2727 41.3376 10.329 41.4703 10.329H41.9854L42.3715 14.1762C42.4195 14.6566 42.8235 15.0207 43.3094 15.0207H44.3405C44.8264 15.0207 45.2294 14.6566 45.2775 14.1762L45.6635 10.329H46.1786C46.3123 10.329 46.4385 10.2727 46.528 10.1751C46.6174 10.0766 46.6608 9.94524 46.6466 9.81293Z" fill="#121312" fill-opacity="0.3"/>
<path d="M53.8677 3.76044C54.9078 3.76044 55.751 2.92023 55.751 1.88376C55.751 0.847299 54.9078 0.00708008 53.8677 0.00708008C52.8276 0.00708008 51.9844 0.847299 51.9844 1.88376C51.9844 2.92023 52.8276 3.76044 53.8677 3.76044Z" fill="#121312" fill-opacity="0.3"/>
<path d="M56.6896 9.81293L56.2611 5.54442C56.2131 5.06211 55.8101 4.69897 55.3251 4.69897H52.4107C51.9248 4.69897 51.5218 5.06211 51.4737 5.54348L51.0453 9.81293C51.0321 9.94524 51.0754 10.0757 51.1649 10.1751C51.2534 10.2727 51.3805 10.329 51.5133 10.329H52.0284L52.4145 14.1762C52.4625 14.6566 52.8665 15.0207 53.3524 15.0207H54.3835C54.8694 15.0207 55.2724 14.6566 55.3204 14.1762L55.7065 10.329H56.2216C56.3553 10.329 56.4815 10.2727 56.571 10.1751C56.6604 10.0766 56.7037 9.94524 56.6896 9.81293Z" fill="#121312" fill-opacity="0.3"/>
<path d="M63.9146 3.76044C64.9547 3.76044 65.7979 2.92023 65.7979 1.88376C65.7979 0.847299 64.9547 0.00708008 63.9146 0.00708008C62.8744 0.00708008 62.0312 0.847299 62.0312 1.88376C62.0312 2.92023 62.8744 3.76044 63.9146 3.76044Z" fill="#121312" fill-opacity="0.3"/>
<path d="M66.7365 9.81293L66.308 5.54442C66.26 5.06211 65.857 4.69897 65.372 4.69897H62.4576C61.9717 4.69897 61.5686 5.06211 61.5206 5.54348L61.0922 9.81293C61.079 9.94524 61.1223 10.0757 61.2118 10.1751C61.3003 10.2727 61.4274 10.329 61.5602 10.329H62.0753L62.4613 14.1762C62.5094 14.6566 62.9133 15.0207 63.3992 15.0207H64.4304C64.9163 15.0207 65.3193 14.6566 65.3673 14.1762L65.7534 10.329H66.2685C66.4022 10.329 66.5284 10.2727 66.6178 10.1751C66.7073 10.0766 66.7506 9.94524 66.7365 9.81293Z" fill="#121312" fill-opacity="0.3"/>
<path d="M73.9575 3.76044C74.9977 3.76044 75.8409 2.92023 75.8409 1.88376C75.8409 0.847299 74.9977 0.00708008 73.9575 0.00708008C72.9174 0.00708008 72.0742 0.847299 72.0742 1.88376C72.0742 2.92023 72.9174 3.76044 73.9575 3.76044Z" fill="#121312" fill-opacity="0.3"/>
<path d="M76.7794 9.81293L76.351 5.54442C76.303 5.06211 75.8999 4.69897 75.415 4.69897H72.5005C72.0146 4.69897 71.6116 5.06211 71.5636 5.54348L71.1351 9.81293C71.122 9.94524 71.1653 10.0757 71.2547 10.1751C71.3432 10.2727 71.4704 10.329 71.6031 10.329H72.1182L72.5043 14.1762C72.5523 14.6566 72.9563 15.0207 73.4422 15.0207H74.4733C74.9592 15.0207 75.3622 14.6566 75.4103 14.1762L75.7964 10.329H76.3114C76.4452 10.329 76.5713 10.2727 76.6608 10.1751C76.7503 10.0766 76.7936 9.94524 76.7794 9.81293Z" fill="#121312" fill-opacity="0.3"/>
<path d="M83.8247 3.76044C84.8649 3.76044 85.708 2.92023 85.708 1.88376C85.708 0.847299 84.8649 0.00708008 83.8247 0.00708008C82.7846 0.00708008 81.9414 0.847299 81.9414 1.88376C81.9414 2.92023 82.7846 3.76044 83.8247 3.76044Z" fill="#121312" fill-opacity="0.3"/>
<path d="M86.6466 9.81293L86.2182 5.54442C86.1702 5.06211 85.7671 4.69897 85.2822 4.69897H82.3677C81.8818 4.69897 81.4788 5.06211 81.4308 5.54348L81.0023 9.81293C80.9891 9.94524 81.0325 10.0757 81.1219 10.1751C81.2104 10.2727 81.3376 10.329 81.4703 10.329H81.9854L82.3715 14.1762C82.4195 14.6566 82.8235 15.0207 83.3094 15.0207H84.3405C84.8264 15.0207 85.2294 14.6566 85.2775 14.1762L85.6635 10.329H86.1786C86.3123 10.329 86.4385 10.2727 86.528 10.1751C86.6174 10.0766 86.6608 9.94524 86.6466 9.81293Z" fill="#121312" fill-opacity="0.3"/>
<path d="M93.8677 3.76044C94.9078 3.76044 95.751 2.92023 95.751 1.88376C95.751 0.847299 94.9078 0.00708008 93.8677 0.00708008C92.8276 0.00708008 91.9844 0.847299 91.9844 1.88376C91.9844 2.92023 92.8276 3.76044 93.8677 3.76044Z" fill="#121312" fill-opacity="0.3"/>
<path d="M96.6896 9.81293L96.2611 5.54442C96.2131 5.06211 95.8101 4.69897 95.3251 4.69897H92.4107C91.9248 4.69897 91.5218 5.06211 91.4737 5.54348L91.0453 9.81293C91.0321 9.94524 91.0754 10.0757 91.1649 10.1751C91.2534 10.2727 91.3805 10.329 91.5133 10.329H92.0284L92.4145 14.1762C92.4625 14.6566 92.8665 15.0207 93.3524 15.0207H94.3835C94.8694 15.0207 95.2724 14.6566 95.3204 14.1762L95.7065 10.329H96.2216C96.3553 10.329 96.4815 10.2727 96.571 10.1751C96.6604 10.0766 96.7037 9.94524 96.6896 9.81293Z" fill="#121312" fill-opacity="0.3"/>
</svg>
