<svg width="37" height="16" viewBox="0 0 37 16" fill="none" xmlns="http://www.w3.org/2000/svg">
<path d="M3.60207 3.76044C4.6422 3.76044 5.48539 2.92023 5.48539 1.88376C5.48539 0.847299 4.6422 0.00708008 3.60207 0.00708008C2.56194 0.00708008 1.71875 0.847299 1.71875 1.88376C1.71875 2.92023 2.56194 3.76044 3.60207 3.76044Z" fill="#121312" fill-opacity="0.3"/>
<path d="M6.42398 9.81293L5.99552 5.54442C5.9475 5.06211 5.54447 4.69897 5.05951 4.69897H2.14507C1.65918 4.69897 1.25615 5.06211 1.20812 5.54348L0.779668 9.81293C0.766484 9.94524 0.809801 10.0757 0.899258 10.1751C0.987774 10.2727 1.1149 10.329 1.24767 10.329H1.76276L2.14884 14.1762C2.19687 14.6566 2.60084 15.0207 3.08674 15.0207H4.11785C4.60375 15.0207 5.00678 14.6566 5.05481 14.1762L5.44089 10.329H5.95597C6.08969 10.329 6.21587 10.2727 6.30533 10.1751C6.39479 10.0766 6.4381 9.94524 6.42398 9.81293Z" fill="#121312" fill-opacity="0.3"/>
<path d="M13.645 3.76044C14.6852 3.76044 15.5284 2.92023 15.5284 1.88376C15.5284 0.847299 14.6852 0.00708008 13.645 0.00708008C12.6049 0.00708008 11.7617 0.847299 11.7617 1.88376C11.7617 2.92023 12.6049 3.76044 13.645 3.76044Z" fill="#121312" fill-opacity="0.3"/>
<path d="M16.4669 9.81293L16.0385 5.54442C15.9905 5.06211 15.5874 4.69897 15.1025 4.69897H12.188C11.7021 4.69897 11.2991 5.06211 11.2511 5.54348L10.8226 9.81293C10.8095 9.94524 10.8528 10.0757 10.9422 10.1751C11.0307 10.2727 11.1579 10.329 11.2906 10.329H11.8057L12.1918 14.1762C12.2398 14.6566 12.6438 15.0207 13.1297 15.0207H14.1608C14.6467 15.0207 15.0497 14.6566 15.0978 14.1762L15.4839 10.329H15.9989C16.1327 10.329 16.2588 10.2727 16.3483 10.1751C16.4378 10.0766 16.4811 9.94524 16.4669 9.81293Z" fill="#121312" fill-opacity="0.3"/>
<path d="M23.6919 3.76044C24.732 3.76044 25.5752 2.92023 25.5752 1.88376C25.5752 0.847299 24.732 0.00708008 23.6919 0.00708008C22.6518 0.00708008 21.8086 0.847299 21.8086 1.88376C21.8086 2.92023 22.6518 3.76044 23.6919 3.76044Z" fill="#121312" fill-opacity="0.3"/>
<path d="M26.5138 9.81293L26.0854 5.54442C26.0373 5.06211 25.6343 4.69897 25.1494 4.69897H22.2349C21.749 4.69897 21.346 5.06211 21.298 5.54348L20.8695 9.81293C20.8563 9.94524 20.8996 10.0757 20.9891 10.1751C21.0776 10.2727 21.2047 10.329 21.3375 10.329H21.8526L22.2387 14.1762C22.2867 14.6566 22.6907 15.0207 23.1766 15.0207H24.2077C24.6936 15.0207 25.0966 14.6566 25.1446 14.1762L25.5307 10.329H26.0458C26.1795 10.329 26.3057 10.2727 26.3952 10.1751C26.4846 10.0766 26.5279 9.94524 26.5138 9.81293Z" fill="#121312" fill-opacity="0.3"/>
<path d="M33.7349 3.76044C34.775 3.76044 35.6182 2.92023 35.6182 1.88376C35.6182 0.847299 34.775 0.00708008 33.7349 0.00708008C32.6948 0.00708008 31.8516 0.847299 31.8516 1.88376C31.8516 2.92023 32.6948 3.76044 33.7349 3.76044Z" fill="#121312" fill-opacity="0.3"/>
<path d="M36.5568 9.81293L36.1283 5.54442C36.0803 5.06211 35.6773 4.69897 35.1923 4.69897H32.2779C31.792 4.69897 31.389 5.06211 31.3409 5.54348L30.9125 9.81293C30.8993 9.94524 30.9426 10.0757 31.0321 10.1751C31.1206 10.2727 31.2477 10.329 31.3805 10.329H31.8956L32.2817 14.1762C32.3297 14.6566 32.7337 15.0207 33.2195 15.0207H34.2507C34.7366 15.0207 35.1396 14.6566 35.1876 14.1762L35.5737 10.329H36.0888C36.2225 10.329 36.3487 10.2727 36.4381 10.1751C36.5276 10.0766 36.5709 9.94524 36.5568 9.81293Z" fill="#121312" fill-opacity="0.3"/>
</svg>
