<svg width="111" height="1696" viewBox="0 0 111 1696" fill="none" xmlns="http://www.w3.org/2000/svg">
<path fill-rule="evenodd" clip-rule="evenodd" d="M63.3288 100.102L78.8387 113.963L94.3087 100.114L109.686 113.88V113.868V97.2322L94.3087 83.4543L78.8254 97.3155L63.3155 83.4662L47.8588 97.3155L32.4153 83.4543L16.932 97.3155L16.9054 97.2917L1.28906 83.3352V99.9711L16.932 113.963L32.402 100.114L47.8454 113.963L63.3288 100.102ZM55.4142 129.527L109.619 116.131L109.513 129.563L82.5233 136.196L109.513 142.841L109.619 156.19L55.4142 142.865L1.28906 156.119V142.841L28.2918 136.196L1.31567 129.563L1.28906 116.262L55.4142 129.527Z" fill="#121312" fill-opacity="0.02"/>
<g clip-path="url(#clip0_67_339)">
<path fill-rule="evenodd" clip-rule="evenodd" d="M30.3789 465.789V478.488C36.295 478.484 42.0412 477.031 47.0122 474.353C45.9183 477.517 43.9602 480.427 41.2674 482.808C36.9537 486.623 31.1066 488.768 25.0078 488.775V501.474C31.9613 501.467 38.7135 499.748 44.5436 496.58C43.0272 500.566 40.4844 504.229 37.0611 507.259C31.2389 512.413 23.3449 515.314 15.1094 515.327V528.014C27.1492 528.002 38.6918 523.764 47.2053 516.232C47.4793 515.989 47.7494 515.744 48.0156 515.496V535.817H62.3683V514.999C62.8023 515.417 63.247 515.828 63.7025 516.231C72.2138 523.764 83.7551 528.002 95.7936 528.014V515.327C87.5581 515.314 79.6641 512.413 73.8419 507.26C70.4489 504.256 67.9209 500.631 66.3999 496.686C72.1813 499.784 78.8553 501.465 85.7265 501.474V488.775C79.629 488.768 73.7833 486.622 69.4717 482.808C66.7792 480.425 64.8223 477.514 63.7306 474.349C68.7033 477.03 74.4523 478.484 80.3714 478.488V465.789C75.6898 465.786 71.2007 464.14 67.889 461.212C64.5774 458.284 62.7136 454.313 62.7066 450.171H62.3831H48.3672H48.0304L48.0302 450.241H48.0156V450.799C47.8345 454.712 45.9983 458.431 42.8565 461.211C39.547 464.139 35.0593 465.786 30.3789 465.789ZM89.0138 593.323L64.8311 610.448H46.1021L21.8928 593.3L17.7027 567.725H93.2172L89.0138 593.323ZM0.76948 557.862L7.28737 597.643C7.59059 599.454 8.65459 601.097 10.267 602.245L38.5334 622.253C39.9848 623.285 41.7924 623.846 43.6546 623.842H67.252C69.1035 623.832 70.8976 623.273 72.3466 622.253L100.56 602.245C102.176 601.1 103.241 599.455 103.539 597.643L110.11 557.862C110.183 557.424 110.148 556.977 110.008 556.552C109.869 556.128 109.627 555.734 109.3 555.399C108.973 555.064 108.569 554.796 108.114 554.611C107.66 554.427 107.165 554.331 106.665 554.331H4.24126C3.7382 554.326 3.23993 554.418 2.78094 554.6C2.32194 554.782 1.91319 555.05 1.58299 555.386C1.25278 555.722 1.00901 556.117 0.86854 556.545C0.728075 556.972 0.694274 557.422 0.76948 557.862ZM55.4415 681.595L109.66 668.354L109.54 681.63L82.564 688.186L109.54 694.753L109.66 707.947L55.4415 694.776L1.31641 707.876V694.753L28.3324 688.186L1.34301 681.63L1.31641 668.472L55.4415 681.595ZM55.5432 663.771L55.5612 663.787L71.0047 650.099L86.4747 663.776L86.488 663.764L86.4899 663.762L86.4918 663.764L86.5184 663.776L101.988 650.088L109.664 656.879V640.425L102.121 633.763L101.988 633.634L101.986 633.636L101.985 633.634L99.4972 635.835L86.5013 647.31L86.4899 647.32L76.1696 638.2L71.0085 633.634L71.0066 633.636L71.0047 633.634L67.1338 637.059L65.4832 638.523L55.5517 647.31L55.5432 647.314L55.5346 647.31L45.5996 638.52L43.9525 637.059L40.095 633.634L40.0931 633.636L40.0912 633.634L34.9301 638.2L24.5965 647.32L24.5851 647.31L11.5892 635.835L9.10177 633.634L9.09996 633.636L9.09797 633.634L8.96496 633.763L1.31641 640.519V656.973L9.09797 650.088L24.568 663.776L24.5946 663.764L24.5965 663.762L24.5984 663.764L24.6117 663.776L40.0817 650.099L55.5251 663.787L55.5432 663.771ZM15.1964 450.239H0.84375V502.578H15.1964V450.239ZM95.8008 450.241H110.153V502.58H95.8008V450.241Z" fill="#121312" fill-opacity="0.02"/>
</g>
<g clip-path="url(#clip1_67_339)">
<path d="M31.9001 376.92L47.5438 362.929L63.1655 376.928L78.7433 362.938L94.3525 376.92L110.137 362.789V347.29L94.3838 361.391L94.3587 361.413L78.7339 347.414L63.1561 361.402L47.5532 347.422L31.9095 361.413L16.2941 347.417L0.769531 361.326L0.772665 376.92L16.2941 362.935L31.9001 376.92Z" fill="#121312" fill-opacity="0.02"/>
<path d="M110.137 387.968L55.3687 401.526L0.769531 388.122L0.791467 401.559L28.0143 408.263L0.769531 414.971V428.37L55.3687 414.997L110.137 428.448V415.025L82.7232 408.263L110.137 401.475V387.968Z" fill="#121312" fill-opacity="0.02"/>
<path d="M82.6385 227.532L110.137 202.859V187.25L82.6385 211.924L31.9033 166.405L0.769531 194.341V209.949L31.9033 182.013L82.6385 227.532Z" fill="#121312" fill-opacity="0.02"/>
<path d="M110.137 253.383C102.206 253.383 97.9625 250.111 94.8664 247.721C92.4722 245.871 91.2689 244.941 88.2605 244.941C85.2521 244.941 84.0519 245.871 81.6514 247.721C78.5584 250.111 74.3185 253.383 66.387 253.383C58.4555 253.383 54.2155 250.111 51.1194 247.721C48.7252 245.871 47.5187 244.941 44.5134 244.941C41.5082 244.941 40.3048 245.871 37.9075 247.721C34.8114 250.117 30.5714 253.383 22.6399 253.383C14.7084 253.383 10.4841 250.117 7.37546 247.727C4.97815 245.876 3.77479 244.958 0.769531 244.958V231.436C8.70103 231.436 12.941 234.708 16.0371 237.098C18.4313 238.948 19.6378 239.878 22.6399 239.878C25.642 239.878 26.8485 238.948 29.249 237.098C32.342 234.708 36.5819 231.436 44.5134 231.436C52.4449 231.436 56.6849 234.708 59.781 237.095C62.1783 238.946 63.3848 239.875 66.387 239.875C69.3891 239.875 70.5956 238.946 72.9929 237.092C76.089 234.705 80.329 231.434 88.2605 231.434C96.192 231.434 100.423 234.708 103.531 237.095C105.929 238.948 107.132 239.878 110.137 239.878V253.383Z" fill="#121312" fill-opacity="0.02"/>
<path d="M91.0199 166.328H74.0977V181.492H91.0199V166.328Z" fill="#121312" fill-opacity="0.02"/>
<path d="M88.8861 304.678L64.8785 321.903L46.2797 321.937L22.2376 304.681L18.0666 278.938H93.0602L88.8861 304.678ZM1.2823 268.994L7.76287 309.008C8.05899 310.832 9.11624 312.487 10.7211 313.639L38.7869 333.785C40.2317 334.822 42.0283 335.386 43.8793 335.383L67.3228 335.341C69.1613 335.338 70.9439 334.774 72.3775 333.743L100.403 313.639C102.009 312.488 103.068 310.832 103.364 309.008L109.845 268.994C109.916 268.555 109.881 268.107 109.743 267.681C109.604 267.256 109.365 266.862 109.041 266.526C108.717 266.191 108.316 265.922 107.866 265.737C107.416 265.553 106.927 265.458 106.432 265.458H4.69181C4.19713 265.458 3.7083 265.554 3.2585 265.738C2.80871 265.923 2.4085 266.192 2.08505 266.527C1.76161 266.863 1.52251 267.257 1.38399 267.682C1.24548 268.108 1.21079 268.555 1.2823 268.994Z" fill="#121312" fill-opacity="0.02"/>
</g>
<path fill-rule="evenodd" clip-rule="evenodd" d="M12.8398 772.426H1.20703L20.0158 723.292L37.5178 769.012L55.0197 723.292L72.9611 770.16L90.9025 723.292L109.711 772.426H98.1019V778.559H83.7227V772.426H73.8285H72.0938H62.2035V778.559H47.8242V772.426H38.8246H36.2109H27.2191V778.559H12.8398V772.426ZM20.0424 752.515L16.0519 762.899H24.033L20.0424 752.515ZM55.033 752.515L51.0425 762.899H59.0236L55.033 752.515ZM90.9158 752.515L94.9064 762.899H86.9253L90.9158 752.515Z" fill="#121312" fill-opacity="0.02"/>
<g clip-path="url(#clip2_67_339)">
<path d="M82.5878 856.617L110.086 831.944V816.335L82.5878 841.009L31.8525 795.49L0.71875 823.426V839.034L31.8525 811.098L82.5878 856.617Z" fill="#121312" fill-opacity="0.02"/>
<path d="M110.086 882.466C102.155 882.466 97.9118 879.194 94.8156 876.805C92.4214 874.954 91.2181 874.024 88.2097 874.024C85.2013 874.024 84.0011 874.954 81.6006 876.805C78.5076 879.194 74.2677 882.466 66.3362 882.466C58.4047 882.466 54.1647 879.194 51.0686 876.805C48.6744 874.954 47.4679 874.024 44.4627 874.024C41.4574 874.024 40.254 874.954 37.8567 876.805C34.7606 879.2 30.5206 882.466 22.5891 882.466C14.6576 882.466 10.4334 879.2 7.32468 876.81C4.92737 874.96 3.72401 874.041 0.71875 874.041V860.52C8.65025 860.52 12.8902 863.791 15.9863 866.181C18.3805 868.032 19.587 868.961 22.5891 868.961C25.5913 868.961 26.7978 868.032 29.1982 866.181C32.2912 863.791 36.5312 860.52 44.4627 860.52C52.3942 860.52 56.6341 863.791 59.7302 866.178C62.1276 868.029 63.3341 868.958 66.3362 868.958C69.3383 868.958 70.5448 868.029 72.9421 866.175C76.0382 863.788 80.2782 860.517 88.2097 860.517C96.1412 860.517 100.372 863.791 103.48 866.178C105.878 868.032 107.081 868.961 110.086 868.961V882.466Z" fill="#121312" fill-opacity="0.02"/>
<path d="M90.9691 795.41H74.0469V810.575H90.9691V795.41Z" fill="#121312" fill-opacity="0.02"/>
<path d="M88.8353 933.761L64.8277 950.987L46.2289 951.02L22.1869 933.764L18.0158 908.021H93.0094L88.8353 933.761ZM1.23151 898.077L7.71209 938.091C8.00821 939.915 9.06546 941.57 10.6703 942.722L38.7361 962.868C40.181 963.905 41.9775 964.469 43.8285 964.466L67.272 964.424C69.1105 964.421 70.8931 963.858 72.3267 962.826L100.352 942.722C101.959 941.571 103.017 939.916 103.313 938.091L109.794 898.077C109.865 897.638 109.831 897.19 109.692 896.765C109.553 896.339 109.314 895.945 108.99 895.609C108.666 895.274 108.266 895.005 107.815 894.821C107.365 894.636 106.876 894.541 106.381 894.541H4.64103C4.14635 894.541 3.65751 894.637 3.20772 894.822C2.75793 895.006 2.35772 895.275 2.03427 895.611C1.71083 895.946 1.47172 896.34 1.33321 896.765C1.19469 897.191 1.16001 897.638 1.23151 898.077Z" fill="#121312" fill-opacity="0.02"/>
</g>
<path fill-rule="evenodd" clip-rule="evenodd" d="M12.8398 1013.87H1.20703L20.0158 964.734L37.5178 1010.45L55.0197 964.734L72.9611 1011.6L90.9025 964.734L109.711 1013.87H98.1019V1020H83.7227V1013.87H73.8285H72.0938H62.2035V1020H47.8242V1013.87H38.8246H36.2109H27.2191V1020H12.8398V1013.87ZM20.0424 993.957L16.0519 1004.34H24.033L20.0424 993.957ZM55.033 993.957L51.0425 1004.34H59.0236L55.033 993.957ZM90.9158 993.957L94.9064 1004.34H86.9253L90.9158 993.957Z" fill="#121312" fill-opacity="0.02"/>
<path d="M87.64 39.2198L63.6324 56.4454L45.0336 56.4791L20.9915 39.2226L16.8205 13.4795H91.8141L87.64 39.2198ZM0.0362013 3.53556L6.51678 43.55C6.8129 45.3736 7.87014 47.0286 9.47503 48.1808L37.5408 68.3271C38.9856 69.3639 40.7822 69.9276 42.6332 69.9249L66.0767 69.8828C67.9152 69.8798 69.6978 69.3163 71.1314 68.2849L99.1565 48.1808C100.763 47.0297 101.822 45.3743 102.118 43.55L108.598 3.53556C108.67 3.09669 108.635 2.64916 108.497 2.2234C108.358 1.79765 108.118 1.40365 107.795 1.0682C107.471 0.732746 107.07 0.463716 106.62 0.279392C106.17 0.0950686 105.681 -0.000222198 105.186 3.89054e-07H3.44571C2.95104 0.000180915 2.4622 0.0957663 2.01241 0.280266C1.56262 0.464767 1.1624 0.733856 0.838959 1.06926C0.515513 1.40466 0.276412 1.79852 0.137897 2.22408C-0.000617649 2.64964 -0.0353017 3.09693 0.0362013 3.53556Z" fill="#121312" fill-opacity="0.02"/>
<g clip-path="url(#clip3_67_339)">
<path d="M31.9001 1253.59L47.5438 1239.6L63.1655 1253.6L78.7433 1239.61L94.3525 1253.59L110.137 1239.46V1223.96L94.3838 1238.06L94.3587 1238.09L78.7339 1224.09L63.1561 1238.07L47.5532 1224.09L31.9095 1238.09L16.2941 1224.09L0.769531 1238L0.772665 1253.59L16.2941 1239.61L31.9001 1253.59Z" fill="#121312" fill-opacity="0.02"/>
<path d="M110.137 1264.64L55.3687 1278.2L0.769531 1264.79L0.791467 1278.23L28.0143 1284.93L0.769531 1291.64V1305.04L55.3687 1291.67L110.137 1305.12V1291.7L82.7232 1284.93L110.137 1278.15V1264.64Z" fill="#121312" fill-opacity="0.02"/>
<path d="M82.6385 1104.2L110.137 1079.53V1063.92L82.6385 1088.6L31.9033 1043.08L0.769531 1071.01V1086.62L31.9033 1058.69L82.6385 1104.2Z" fill="#121312" fill-opacity="0.02"/>
<path d="M110.137 1130.06C102.206 1130.06 97.9625 1126.78 94.8664 1124.39C92.4722 1122.54 91.2689 1121.61 88.2605 1121.61C85.2521 1121.61 84.0519 1122.54 81.6514 1124.39C78.5584 1126.78 74.3185 1130.06 66.387 1130.06C58.4555 1130.06 54.2155 1126.78 51.1194 1124.39C48.7252 1122.54 47.5187 1121.61 44.5134 1121.61C41.5082 1121.61 40.3048 1122.54 37.9075 1124.39C34.8114 1126.79 30.5714 1130.06 22.6399 1130.06C14.7084 1130.06 10.4841 1126.79 7.37546 1124.4C4.97815 1122.55 3.77479 1121.63 0.769531 1121.63V1108.11C8.70103 1108.11 12.941 1111.38 16.0371 1113.77C18.4313 1115.62 19.6378 1116.55 22.6399 1116.55C25.642 1116.55 26.8485 1115.62 29.249 1113.77C32.342 1111.38 36.5819 1108.11 44.5134 1108.11C52.4449 1108.11 56.6849 1111.38 59.781 1113.77C62.1783 1115.62 63.3848 1116.55 66.387 1116.55C69.3891 1116.55 70.5956 1115.62 72.9929 1113.76C76.089 1111.38 80.329 1108.11 88.2605 1108.11C96.192 1108.11 100.423 1111.38 103.531 1113.77C105.929 1115.62 107.132 1116.55 110.137 1116.55V1130.06Z" fill="#121312" fill-opacity="0.02"/>
<path d="M91.0199 1043H74.0977V1058.16H91.0199V1043Z" fill="#121312" fill-opacity="0.02"/>
<path d="M88.8861 1181.35L64.8785 1198.58L46.2797 1198.61L22.2376 1181.35L18.0666 1155.61H93.0602L88.8861 1181.35ZM1.2823 1145.67L7.76287 1185.68C8.05899 1187.5 9.11624 1189.16 10.7211 1190.31L38.7869 1210.46C40.2317 1211.49 42.0283 1212.06 43.8793 1212.06L67.3228 1212.01C69.1613 1212.01 70.9439 1211.45 72.3775 1210.42L100.403 1190.31C102.009 1189.16 103.068 1187.5 103.364 1185.68L109.845 1145.67C109.916 1145.23 109.881 1144.78 109.743 1144.35C109.604 1143.93 109.365 1143.53 109.041 1143.2C108.717 1142.86 108.316 1142.59 107.866 1142.41C107.416 1142.23 106.927 1142.13 106.432 1142.13H4.69181C4.19713 1142.13 3.7083 1142.23 3.2585 1142.41C2.80871 1142.6 2.4085 1142.86 2.08505 1143.2C1.76161 1143.54 1.52251 1143.93 1.38399 1144.35C1.24548 1144.78 1.21079 1145.23 1.2823 1145.67Z" fill="#121312" fill-opacity="0.02"/>
</g>
<g clip-path="url(#clip4_67_339)">
<path fill-rule="evenodd" clip-rule="evenodd" d="M30.3789 1582.32V1569.62C35.0593 1569.62 39.547 1567.97 42.8565 1565.04C45.9983 1562.26 47.8346 1558.54 48.0156 1554.63V1554.07H48.0302L48.0304 1554H48.3672H62.3831H62.7066C62.7136 1558.14 64.5774 1562.11 67.889 1565.04C71.2007 1567.97 75.6898 1569.62 80.3714 1569.62V1582.32C74.4523 1582.31 68.7033 1580.86 63.7306 1578.18C64.8224 1581.34 66.7793 1584.25 69.4717 1586.64C73.7833 1590.45 79.629 1592.6 85.7265 1592.6V1605.3C78.8553 1605.29 72.1812 1603.61 66.3998 1600.51C67.9208 1604.46 70.4489 1608.09 73.8419 1611.09C79.6641 1616.24 87.5581 1619.14 95.7936 1619.16V1631.84C83.7551 1631.83 72.2138 1627.59 63.7025 1620.06C63.247 1619.66 62.8023 1619.25 62.3683 1618.83V1639.65H48.0156V1619.33C47.7494 1619.57 47.4793 1619.82 47.2053 1620.06C38.6918 1627.59 27.1492 1631.83 15.1094 1631.84V1619.16C23.3449 1619.14 31.2389 1616.24 37.0611 1611.09C40.4844 1608.06 43.0272 1604.39 44.5436 1600.41C38.7135 1603.58 31.9613 1605.3 25.0078 1605.3V1592.6C31.1066 1592.6 36.9537 1590.45 41.2674 1586.64C43.9602 1584.26 45.9183 1581.35 47.0122 1578.18C42.0412 1580.86 36.295 1582.31 30.3789 1582.32ZM15.1964 1554.07H0.84375V1606.41H15.1964V1554.07ZM95.8008 1554.07H110.153V1606.41H95.8008V1554.07Z" fill="#121312" fill-opacity="0.02"/>
</g>
<g clip-path="url(#clip5_67_339)">
<path d="M82.5878 1378.57L110.086 1353.89V1338.28L82.5878 1362.96L31.8525 1317.44L0.71875 1345.38V1360.98L31.8525 1333.05L82.5878 1378.57Z" fill="#121312" fill-opacity="0.02"/>
<path d="M110.086 1404.41C102.155 1404.41 97.9118 1401.14 94.8156 1398.75C92.4214 1396.9 91.2181 1395.97 88.2097 1395.97C85.2013 1395.97 84.0011 1396.9 81.6006 1398.75C78.5076 1401.14 74.2677 1404.41 66.3362 1404.41C58.4047 1404.41 54.1647 1401.14 51.0686 1398.75C48.6744 1396.9 47.4679 1395.97 44.4627 1395.97C41.4574 1395.97 40.254 1396.9 37.8567 1398.75C34.7606 1401.15 30.5206 1404.41 22.5891 1404.41C14.6576 1404.41 10.4334 1401.15 7.32468 1398.76C4.92737 1396.91 3.72401 1395.99 0.71875 1395.99V1382.47C8.65025 1382.47 12.8902 1385.74 15.9863 1388.13C18.3805 1389.98 19.587 1390.91 22.5891 1390.91C25.5913 1390.91 26.7978 1389.98 29.1982 1388.13C32.2912 1385.74 36.5312 1382.47 44.4627 1382.47C52.3942 1382.47 56.6341 1385.74 59.7302 1388.13C62.1276 1389.98 63.3341 1390.91 66.3362 1390.91C69.3383 1390.91 70.5448 1389.98 72.9421 1388.12C76.0382 1385.74 80.2782 1382.47 88.2097 1382.47C96.1412 1382.47 100.372 1385.74 103.48 1388.13C105.878 1389.98 107.081 1390.91 110.086 1390.91V1404.41Z" fill="#121312" fill-opacity="0.02"/>
<path d="M90.9691 1317.36H74.0469V1332.52H90.9691V1317.36Z" fill="#121312" fill-opacity="0.02"/>
<path d="M88.8353 1455.71L64.8277 1472.94L46.2289 1472.97L22.1869 1455.71L18.0158 1429.97H93.0094L88.8353 1455.71ZM1.23151 1420.03L7.71209 1460.04C8.00821 1461.86 9.06546 1463.52 10.6703 1464.67L38.7361 1484.82C40.181 1485.85 41.9775 1486.42 43.8285 1486.41L67.272 1486.37C69.1105 1486.37 70.8931 1485.81 72.3267 1484.77L100.352 1464.67C101.959 1463.52 103.017 1461.86 103.313 1460.04L109.794 1420.03C109.865 1419.59 109.831 1419.14 109.692 1418.71C109.553 1418.29 109.314 1417.89 108.99 1417.56C108.666 1417.22 108.266 1416.95 107.815 1416.77C107.365 1416.59 106.876 1416.49 106.381 1416.49H4.64103C4.14635 1416.49 3.65751 1416.59 3.20772 1416.77C2.75793 1416.95 2.35772 1417.22 2.03427 1417.56C1.71083 1417.89 1.47172 1418.29 1.33321 1418.71C1.19469 1419.14 1.16001 1419.59 1.23151 1420.03Z" fill="#121312" fill-opacity="0.02"/>
</g>
<path fill-rule="evenodd" clip-rule="evenodd" d="M12.8398 1535.82H1.20703L20.0158 1486.68L37.5178 1532.4L55.0197 1486.68L72.9611 1533.55L90.9025 1486.68L109.711 1535.82H98.1019V1541.95H83.7227V1535.82H73.8285H72.0938H62.2035V1541.95H47.8242V1535.82H38.8246H36.2109H27.2191V1541.95H12.8398V1535.82ZM20.0424 1515.91L16.0519 1526.29H24.033L20.0424 1515.91ZM55.033 1515.91L51.0425 1526.29H59.0236L55.033 1515.91ZM90.9158 1515.91L94.9064 1526.29H86.9253L90.9158 1515.91Z" fill="#121312" fill-opacity="0.02"/>
<defs>
<clipPath id="clip0_67_339">
<rect width="109.368" height="257.776" fill="white" transform="translate(0.769531 450.171)"/>
</clipPath>
<clipPath id="clip1_67_339">
<rect width="109.368" height="262.12" fill="white" transform="translate(0.769531 166.328)"/>
</clipPath>
<clipPath id="clip2_67_339">
<rect width="108.721" height="169.682" fill="white" transform="translate(1.20703 795.051)"/>
</clipPath>
<clipPath id="clip3_67_339">
<rect width="109.368" height="262.12" fill="white" transform="translate(0.769531 1043)"/>
</clipPath>
<clipPath id="clip4_67_339">
<rect width="109" height="142" fill="white" transform="translate(1 1554)"/>
</clipPath>
<clipPath id="clip5_67_339">
<rect width="108.721" height="169.682" fill="white" transform="translate(1.20703 1317)"/>
</clipPath>
</defs>
</svg>
