<svg width="180" height="70" viewBox="0 0 180 70" fill="none" xmlns="http://www.w3.org/2000/svg">
<path d="M78.5711 4.86719V18.1797H75.1772V10.3755L69.3041 18.1797H65.9102V4.86719H69.3041V12.5677L75.1772 4.86719H78.5711Z" fill="white"/>
<path d="M107.611 4.86719V18.1797H104.22V10.3755L98.3436 18.1797H94.9531V4.86719H98.3436V12.5677L104.22 4.86719H107.611Z" fill="white"/>
<path d="M165.509 4.86719V18.1797H162.119V10.3755L156.242 18.1797H152.852V4.86719H156.242V12.5677L162.119 4.86719H165.509Z" fill="white"/>
<path d="M180.001 4.86719V18.1797H176.607V10.3755L170.734 18.1797H167.344V4.86719H170.734V12.5677L176.607 4.86719H180.001Z" fill="white"/>
<path d="M89.7621 11.8978C89.7621 9.6502 88.9555 9.0036 86.7348 9.0036C84.514 9.0036 83.683 9.6502 83.683 11.7698C83.683 13.7857 84.4896 14.8196 86.7348 14.8196C88.9799 14.8196 89.7621 14.173 89.7621 11.8978ZM93.156 11.8978C93.156 15.646 91.1483 18.1771 86.9967 18.1771C81.7591 18.1771 80.2891 14.9752 80.2891 11.0714V7.19517C80.2891 3.98979 81.4378 0.0721063 87.3109 0.601149C88.6729 0.752981 90.0518 0.576214 91.3299 0.0859375V3.39505C90.0811 3.9891 88.6776 4.18713 87.3109 3.96213C83.8192 3.47804 83.683 5.04788 83.683 7.11564C84.164 6.6296 84.7416 6.24773 85.3793 5.99417C86.017 5.74062 86.7009 5.62091 87.3877 5.64262C91.1483 5.64262 93.156 8.17718 93.156 11.8978Z" fill="white"/>
<path d="M119.067 11.5115C119.067 8.87323 118.127 8.23008 115.963 8.23008C113.798 8.23008 112.855 8.87323 112.855 11.5115C112.855 14.1498 113.794 14.8206 115.963 14.8206C118.131 14.8206 119.067 14.1775 119.067 11.5115ZM122.461 11.5115C122.461 15.3151 120.715 18.1816 116.615 18.1816C115.918 18.2014 115.224 18.0783 114.577 17.82C113.93 17.5618 113.344 17.174 112.855 16.6809V22.3172H109.461V4.8691H112.855V6.34212C113.349 5.85769 113.937 5.47741 114.583 5.22424C115.229 4.97106 115.921 4.85025 116.615 4.8691C120.711 4.8691 122.461 7.71141 122.461 11.5115Z" fill="white"/>
<path d="M59.9154 38.598C59.9154 36.9175 58.9761 36.5233 57.4712 36.5233H50.9451V40.6726H57.4607C58.9761 40.6726 59.9049 40.2819 59.9049 38.598H59.9154ZM63.2988 38.598C63.2988 41.7515 61.354 44.0233 56.7344 44.0233H47.5547V26.4473H61.5704V29.8082H50.9451V33.1692H57.3315C61.951 33.1692 63.3093 35.4445 63.3093 38.598" fill="white"/>
<path d="M72.8736 39.6345C72.8736 38.5971 72.1753 38.2894 70.4294 38.2894C68.6836 38.2894 67.9852 38.6006 67.9852 39.6345C67.9852 40.6683 68.6661 40.9761 70.4294 40.9761C72.1927 40.9761 72.8736 40.6683 72.8736 39.6345ZM77.9611 40.6718V44.0293H72.8736V42.7396C72.2207 43.4104 71.2011 44.0293 69.2457 44.0293C66.0613 44.0293 64.5703 42.0134 64.5703 39.6379C64.5703 37.2624 66.0613 35.243 69.2457 35.243C71.2011 35.243 72.2207 35.8378 72.8736 36.5363V34.0743H66.0857V30.7168H76.2676V40.6683L77.9611 40.6718Z" fill="white"/>
<path d="M91.8048 30.7168V44.0259H88.4108V39.2714H82.433V44.0259H79.0391V30.7168H82.433V35.9104H88.4108V30.7168H91.8048Z" fill="white"/>
<path d="M106.559 30.7168V44.0259H103.165V39.2714H97.1908V44.0259H93.7969V30.7168H97.1908V35.9104H103.165V30.7168H106.559Z" fill="white"/>
<path d="M123.835 44.0259H120.441V30.7168H123.835V44.0259ZM116.154 39.3993C116.154 38.2894 115.633 38.1614 114.223 38.1614H111.796V40.6683H114.223C115.619 40.6683 116.154 40.5369 116.154 39.3993ZM119.547 39.3993C119.547 41.9062 118.294 44.0259 114.642 44.0259H108.398V30.7168H111.792V34.8005H114.638C118.29 34.8005 119.544 36.9201 119.544 39.3993" fill="white"/>
<path d="M62.7269 52.4199V69.9959H59.3364V63.4053H54.9857C48.4352 63.4883 47.3284 59.543 47.496 52.4199H50.8864C50.8864 58.2601 51.0959 60.0444 54.9857 60.0444H59.3364V52.4199H62.7269Z" fill="white"/>
<path d="M72.8623 65.6008C72.8623 64.5635 72.164 64.2592 70.4181 64.2592C68.6723 64.2592 67.9739 64.5669 67.9739 65.6008C67.9739 66.6347 68.6513 66.9459 70.4181 66.9459C72.1849 66.9459 72.8623 66.6347 72.8623 65.6008ZM77.9532 66.6381V69.9991H72.8623V68.7059C72.2094 69.3802 71.1898 69.9991 69.2344 69.9991C66.05 69.9991 64.5625 67.9832 64.5625 65.6043C64.5625 63.2253 66.05 61.2025 69.2344 61.2025C71.1898 61.2025 72.2094 61.7972 72.8623 62.4957V60.0407H66.0744V56.6797H76.2563V66.6312L77.9532 66.6381Z" fill="white"/>
<path d="M91.8091 56.6816V69.9942H88.4152V65.2397H82.4373V69.9942H79.0469V56.6816H82.4373V61.8787H88.4152V56.6816H91.8091Z" fill="white"/>
<path d="M149.293 7.99605H150.993V4.88403L148.842 4.86328C148.393 4.86341 147.951 4.97063 147.553 5.17588C147.155 5.38113 146.813 5.67835 146.555 6.04239L143.859 9.85288H141.956V4.86674H138.562V18.1793H141.956V13.2139H143.859L147.386 18.1793H151.457L146.841 11.5334L149.293 7.99605Z" fill="white"/>
<path d="M173.669 3.4163C172.754 3.41539 171.877 3.05516 171.23 2.41468C170.583 1.7742 170.22 0.905779 170.219 0L177.118 0C177.117 0.905779 176.754 1.7742 176.107 2.41468C175.46 3.05516 174.583 3.41539 173.669 3.4163Z" fill="white"/>
<path d="M132.297 29.8948C131.843 29.8953 131.394 29.8073 130.975 29.6358C130.556 29.4644 130.175 29.2129 129.854 28.8956C129.533 28.5784 129.278 28.2017 129.104 27.7869C128.93 27.3722 128.84 26.9276 128.84 26.4785H135.739C135.739 27.3843 135.375 28.2527 134.728 28.8932C134.081 29.5337 133.204 29.8939 132.29 29.8948" fill="white"/>
<path d="M138.634 30.7207V44.0332H135.24V36.229L129.367 44.0332H125.973V30.7207H129.367V38.4212L135.24 30.7207H138.634Z" fill="white"/>
<path d="M60.8016 11.4102H64.6844C64.3352 15.3867 61.0041 18.191 56.2135 18.191C51.2832 18.191 47.5156 15.1032 47.5156 9.13845C47.5156 3.2844 51.2832 0.0859375 56.2205 0.0859375C61.0111 0.0859375 64.454 3.07002 64.6879 6.86322H60.8121C60.2744 4.9476 58.9859 4.03474 56.2135 4.03474C53.277 4.03474 51.2448 5.59767 51.2448 9.13499C51.2448 12.6723 53.277 14.2352 56.2205 14.2352C59.0977 14.2352 60.3337 13.1633 60.8086 11.4068L60.8016 11.4102Z" fill="white"/>
<path d="M130.346 14.9311C128.21 14.9311 127.284 14.2395 127.284 11.4733C127.284 8.70704 128.21 8.01548 130.346 8.01548C131.967 8.01548 132.892 8.40967 133.241 9.81353H136.852C136.527 6.64619 134.432 4.80664 130.305 4.80664C126.045 4.80664 123.559 7.16486 123.559 11.4767C123.559 15.8681 126.045 18.1399 130.305 18.1399C134.442 18.1399 136.558 16.3557 136.852 13.1468H133.234C132.885 14.53 131.96 14.9311 130.346 14.9311Z" fill="white"/>
<path d="M7.52856 56.2298L11.3066 52.4919L15.0811 56.2333L18.8452 52.4954L22.6198 56.2298L26.4327 52.4573V48.3184L22.6268 52.0839L22.6198 52.0874L18.8452 48.3495L15.0811 52.0874L11.3101 48.3529L7.52856 52.0874L3.75401 48.3529L0.00390625 52.0632L0.00739797 56.2298L3.75401 52.4954L7.52856 56.2298Z" fill="#F36200"/>
<path d="M26.4288 59.1855L13.1952 62.8059L0 59.2236L0.00349172 62.8128L6.58538 64.6039L0 66.3951V69.9739L13.1952 66.402L26.4288 69.9946V66.4089L19.805 64.6039L26.4288 62.792V59.1855Z" fill="#86490A"/>
<path d="M19.7705 16.3143L26.4118 9.73069V5.56404L19.7705 12.1512L7.52158 0.00390625L0.00390625 7.45892V11.6221L7.52158 4.16709L19.7705 16.3143Z" fill="#076C26"/>
<path d="M26.4114 23.2266C24.4944 23.2266 23.4713 22.3553 22.7241 21.7156C22.1445 21.2246 21.8547 20.9756 21.1284 20.9756C20.4021 20.9756 20.1123 21.2246 19.5327 21.7156C18.7854 22.3553 17.7624 23.2266 15.8454 23.2266C13.9285 23.2266 12.9194 22.3553 12.1617 21.7156C11.582 21.2246 11.2922 20.9756 10.5659 20.9756C9.83966 20.9756 9.54985 21.2246 8.97023 21.7156C8.223 22.3553 7.19992 23.2266 5.28297 23.2266C3.36602 23.2266 2.34294 22.3553 1.59572 21.7156C1.01609 21.2246 0.726278 20.9756 0 20.9756V17.3691C1.91346 17.3691 2.93654 18.244 3.68376 18.8802C4.26339 19.3747 4.5532 19.6236 5.27948 19.6236C6.00576 19.6236 6.28509 19.3643 6.87869 18.8802C7.62591 18.244 8.64899 17.3691 10.5659 17.3691C12.4829 17.3691 13.5025 18.244 14.2532 18.8802C14.8293 19.3747 15.1226 19.6236 15.8454 19.6236C16.5682 19.6236 16.8615 19.3643 17.4586 18.8802C18.2058 18.244 19.2324 17.3691 21.1459 17.3691C23.0593 17.3691 24.0859 18.244 24.8331 18.8802C25.4127 19.3747 25.7025 19.6236 26.4288 19.6236L26.4114 23.2266Z" fill="#5394D1"/>
<path d="M21.8115 0H17.7227V4.04908H21.8115V0Z" fill="#F17C00"/>
<path d="M0.143769 27.3867L1.70806 38.0609C1.78174 38.5468 2.03725 38.9875 2.42386 39.2954L9.1978 44.6688C9.54598 44.9462 9.98001 45.0964 10.4269 45.0941H16.0835C16.5278 45.0937 16.9587 44.9437 17.3056 44.6688L24.069 39.3058C24.4491 38.9949 24.6982 38.5546 24.7674 38.0713L26.3317 27.3971C26.3487 27.28 26.3401 27.1607 26.3065 27.0471C26.2729 26.9336 26.2151 26.8286 26.137 26.7391C26.0588 26.6496 25.9622 26.5777 25.8536 26.5284C25.7451 26.4791 25.6271 26.4534 25.5076 26.4531H0.967815C0.849372 26.4536 0.73239 26.479 0.624644 26.5278C0.516899 26.5765 0.42086 26.6473 0.34291 26.7357C0.264961 26.824 0.206889 26.9277 0.172553 27.04C0.138217 27.1522 0.128405 27.2704 0.143769 27.3867ZM21.3001 36.8991L15.4969 41.4911H11.0065L5.19978 36.9026L4.19067 30.0319H22.2987L21.3001 36.8991Z" fill="white"/>
</svg>
