<svg width="129" height="51" viewBox="0 0 129 51" fill="none" xmlns="http://www.w3.org/2000/svg">
<path d="M56.312 3.48828V13.0289H53.8797V7.43588L49.6706 13.0289H47.2383V3.48828H49.6706V9.00699L53.8797 3.48828H56.312Z" fill="#121312"/>
<path d="M77.122 3.4888V13.0295H74.6922V7.4364L70.4806 13.0295H68.0508V3.4888H70.4806V9.00751L74.6922 3.4888H77.122Z" fill="#121312"/>
<path d="M118.614 3.48828V13.0289H116.184V7.43588L111.973 13.0289H109.543V3.48828H111.973V9.00699L116.184 3.48828H118.614Z" fill="#121312"/>
<path d="M129.001 3.48828V13.0289H126.569V7.43588L122.36 13.0289H119.93V3.48828H122.36V9.00699L126.569 3.48828H129.001Z" fill="#121312"/>
<path d="M64.3281 8.52672C64.3281 6.91596 63.75 6.45255 62.1585 6.45255C60.567 6.45255 59.9714 6.91596 59.9714 8.43503C59.9714 9.87975 60.5495 10.6207 62.1585 10.6207C63.7675 10.6207 64.3281 10.1573 64.3281 8.52672ZM66.7604 8.52672C66.7604 11.213 65.3215 13.0269 62.3462 13.0269C58.5926 13.0269 57.5391 10.7322 57.5391 7.93445V5.15651C57.5391 2.85932 58.3624 0.0516416 62.5714 0.43079C63.5475 0.539602 64.5357 0.41292 65.4517 0.061554V2.43309C64.5567 2.85882 63.5508 3.00075 62.5714 2.83949C60.069 2.49256 59.9714 3.61762 59.9714 5.09951C60.3161 4.75119 60.73 4.47751 61.1871 4.29579C61.6441 4.11408 62.1342 4.02829 62.6264 4.04385C65.3215 4.04385 66.7604 5.86029 66.7604 8.52672Z" fill="#121312"/>
<path d="M85.3333 8.2501C85.3333 6.35931 84.6602 5.89839 83.1087 5.89839C81.5572 5.89839 80.8816 6.35931 80.8816 8.2501C80.8816 10.1409 81.5547 10.6216 83.1087 10.6216C84.6627 10.6216 85.3333 10.1607 85.3333 8.2501ZM87.7657 8.2501C87.7657 10.976 86.5145 13.0303 83.5767 13.0303C83.0769 13.0445 82.5795 12.9563 82.1157 12.7712C81.652 12.5861 81.2318 12.3082 80.8816 11.9548V15.9941H78.4492V3.48968H80.8816V4.54535C81.2354 4.19818 81.6567 3.92564 82.1199 3.7442C82.5832 3.56276 83.0787 3.47617 83.5767 3.48968C86.512 3.48968 87.7657 5.52667 87.7657 8.2501Z" fill="#121312"/>
<path d="M42.9405 27.6628C42.9405 26.4584 42.2674 26.1759 41.1889 26.1759H36.5119V29.1496H41.1813C42.2674 29.1496 42.933 28.8696 42.933 27.6628H42.9405ZM45.3654 27.6628C45.3654 29.9228 43.9715 31.5509 40.6608 31.5509H34.082V18.9548H44.1267V21.3635H36.5119V23.7722H41.0888C44.3994 23.7722 45.3729 25.4028 45.3729 27.6628" fill="#121312"/>
<path d="M52.2242 28.4039C52.2242 27.6604 51.7237 27.4399 50.4725 27.4399C49.2213 27.4399 48.7208 27.6629 48.7208 28.4039C48.7208 29.1448 49.2088 29.3654 50.4725 29.3654C51.7362 29.3654 52.2242 29.1448 52.2242 28.4039ZM55.8702 29.1473V31.5535H52.2242V30.6292C51.7562 31.1099 51.0255 31.5535 49.6242 31.5535C47.342 31.5535 46.2734 30.1088 46.2734 28.4064C46.2734 26.7039 47.342 25.2567 49.6242 25.2567C51.0255 25.2567 51.7562 25.6829 52.2242 26.1835V24.4191H47.3595V22.0129H54.6565V29.1448L55.8702 29.1473Z" fill="#121312"/>
<path d="M65.7933 22.0129V31.5511H63.361V28.1437H59.0769V31.5511H56.6445V22.0129H59.0769V25.735H63.361V22.0129H65.7933Z" fill="#121312"/>
<path d="M76.3689 22.0129V31.5511H73.9366V28.1437H69.655V31.5511H67.2227V22.0129H69.655V25.735H73.9366V22.0129H76.3689Z" fill="#121312"/>
<path d="M88.7467 31.5511H86.3144V22.0129H88.7467V31.5511ZM83.2414 28.2354C83.2414 27.4399 82.8686 27.3482 81.8576 27.3482H80.1184V29.1448H81.8576C82.8586 29.1448 83.2414 29.0507 83.2414 28.2354ZM85.6738 28.2354C85.6738 30.032 84.7754 31.5511 82.1579 31.5511H77.6836V22.0129H80.1159V24.9395H82.1554C84.7729 24.9395 85.6713 26.4586 85.6713 28.2354" fill="#121312"/>
<path d="M44.9539 37.5679V50.1641H42.5241V45.4408H39.4061C34.7116 45.5003 33.9183 42.6728 34.0385 37.5679H36.4683C36.4683 41.7534 36.6184 43.0321 39.4061 43.0321H42.5241V37.5679H44.9539Z" fill="#121312"/>
<path d="M52.2216 47.0142C52.2216 46.2707 51.7212 46.0527 50.47 46.0527C49.2188 46.0527 48.7183 46.2732 48.7183 47.0142C48.7183 47.7551 49.2037 47.9782 50.47 47.9782C51.7362 47.9782 52.2216 47.7551 52.2216 47.0142ZM55.8702 47.7576V50.1663H52.2216V49.2395C51.7537 49.7227 51.023 50.1663 49.6217 50.1663C47.3395 50.1663 46.2734 48.7216 46.2734 47.0166C46.2734 45.3117 47.3395 43.862 49.6217 43.862C51.023 43.862 51.7537 44.2883 52.2216 44.7888V43.0294H47.357V40.6207H54.654V47.7526L55.8702 47.7576Z" fill="#121312"/>
<path d="M65.7986 40.6231V50.1637H63.3663V46.7564H59.0822V50.1637H56.6523V40.6231H59.0822V44.3477H63.3663V40.6231H65.7986Z" fill="#121312"/>
<path d="M106.995 5.73191H108.213V3.50162L106.672 3.48676C106.35 3.48684 106.033 3.56369 105.748 3.71078C105.463 3.85788 105.217 4.07089 105.033 4.33178L103.101 7.06264H101.737V3.48923H99.3047V13.0299H101.737V9.47135H103.101L105.628 13.0299H108.546L105.238 8.267L106.995 5.73191Z" fill="#121312"/>
<path d="M124.461 2.44835C123.805 2.4477 123.177 2.18954 122.713 1.73052C122.25 1.27151 121.989 0.649143 121.988 0L126.933 0C126.932 0.649143 126.672 1.27151 126.208 1.73052C125.745 2.18954 125.116 2.4477 124.461 2.44835" fill="#121312"/>
<path d="M94.8133 21.4235C94.4883 21.4238 94.1664 21.3607 93.866 21.2379C93.5656 21.115 93.2926 20.9348 93.0626 20.7074C92.8325 20.4801 92.65 20.2101 92.5253 19.9128C92.4006 19.6156 92.3363 19.297 92.3359 18.9751H97.2807C97.28 19.6243 97.0193 20.2466 96.5558 20.7057C96.0923 21.1647 95.4638 21.4228 94.8083 21.4235" fill="#121312"/>
<path d="M99.355 22.0177V31.5584H96.9226V25.9653L92.7136 31.5584H90.2812V22.0177H92.7136V27.5364L96.9226 22.0177H99.355Z" fill="#121312"/>
<path d="M43.5724 8.1773H46.3551C46.1049 11.0271 43.7176 13.0368 40.2843 13.0368C36.7509 13.0368 34.0508 10.8239 34.0508 6.5492C34.0508 2.35379 36.7509 0.061554 40.2893 0.061554C43.7226 0.061554 46.1899 2.20015 46.3576 4.91861H43.5799C43.1946 3.54575 42.2712 2.89153 40.2843 2.89153C38.1797 2.89153 36.7233 4.01163 36.7233 6.54672C36.7233 9.08181 38.1797 10.2019 40.2893 10.2019C42.3512 10.2019 43.2371 9.4337 43.5774 8.17483L43.5724 8.1773Z" fill="#121312"/>
<path d="M93.4155 10.7006C91.884 10.7006 91.2208 10.2049 91.2208 8.22246C91.2208 6.23999 91.884 5.74437 93.4155 5.74437C94.5766 5.74437 95.2397 6.02687 95.4899 7.03298H98.0774C97.8447 4.76305 96.3433 3.4447 93.3854 3.4447C90.3325 3.4447 88.5508 5.13476 88.5508 8.22494C88.5508 11.3721 90.3325 13.0002 93.3854 13.0002C96.3508 13.0002 97.8672 11.7215 98.0774 9.42186H95.4849C95.2347 10.4131 94.5716 10.7006 93.4155 10.7006" fill="#121312"/>
<path d="M5.39658 40.2984L8.10418 37.6196L10.8093 40.3009L13.5069 37.6221L16.212 40.2984L18.9446 37.5948V34.6285L16.217 37.3272L16.212 37.3297L13.5069 34.6508L10.8093 37.3297L8.10669 34.6533L5.39658 37.3297L2.69149 34.6533L0.00390625 37.3123L0.00640865 40.2984L2.69149 37.6221L5.39658 40.2984Z" fill="#F36200"/>
<path d="M18.9407 42.4173L9.45658 45.0119L0 42.4446L0.0025024 45.0168L4.71953 46.3005L0 47.5841V50.1489L9.45658 47.5891L18.9407 50.1638V47.594L14.1936 46.3005L18.9407 45.0019V42.4173Z" fill="#86490A"/>
<path d="M14.17 11.692L18.9296 6.97374V3.98764L14.17 8.70841L5.39158 0.00286865L0.00390625 5.34564V8.32926L5.39158 2.98649L14.17 11.692Z" fill="#076C26"/>
<path d="M18.9282 16.6454C17.5544 16.6454 16.8212 16.0209 16.2856 15.5625C15.8702 15.2106 15.6625 15.0322 15.142 15.0322C14.6215 15.0322 14.4138 15.2106 13.9984 15.5625C13.4629 16.0209 12.7297 16.6454 11.3559 16.6454C9.98208 16.6454 9.25889 16.0209 8.71587 15.5625C8.30047 15.2106 8.09277 15.0322 7.57227 15.0322C7.05177 15.0322 6.84407 15.2106 6.42867 15.5625C5.89316 16.0209 5.15995 16.6454 3.78614 16.6454C2.41232 16.6454 1.67911 16.0209 1.1436 15.5625C0.728199 15.2106 0.5205 15.0322 0 15.0322V12.4475C1.37132 12.4475 2.10452 13.0745 2.64003 13.5304C3.05543 13.8848 3.26313 14.0632 3.78363 14.0632C4.30413 14.0632 4.50432 13.8774 4.92973 13.5304C5.46525 13.0745 6.19845 12.4475 7.57227 12.4475C8.94609 12.4475 9.67679 13.0745 10.2148 13.5304C10.6277 13.8848 10.8379 14.0632 11.3559 14.0632C11.8739 14.0632 12.0841 13.8774 12.512 13.5304C13.0475 13.0745 13.7832 12.4475 15.1546 12.4475C16.5259 12.4475 17.2616 13.0745 17.7971 13.5304C18.2125 13.8848 18.4202 14.0632 18.9407 14.0632L18.9282 16.6454Z" fill="#5394D1"/>
<path d="M15.6334 0H12.7031V2.90184H15.6334V0Z" fill="#F17C00"/>
<path d="M0.102709 19.6287L1.22379 27.2786C1.27659 27.6268 1.45971 27.9426 1.73678 28.1633L6.59144 32.0142C6.84097 32.213 7.15203 32.3207 7.47229 32.319H11.5262C11.8446 32.3187 12.1534 32.2113 12.402 32.0142L17.2492 28.1707C17.5216 27.948 17.7001 27.6324 17.7497 27.286L18.8707 19.6362C18.8829 19.5523 18.8768 19.4667 18.8527 19.3854C18.8286 19.304 18.7872 19.2287 18.7312 19.1646C18.6752 19.1005 18.606 19.049 18.5282 19.0136C18.4503 18.9783 18.3658 18.9599 18.2802 18.9597H0.693276C0.608392 18.96 0.524554 18.9782 0.447337 19.0131C0.370119 19.0481 0.301291 19.0988 0.245427 19.1621C0.189564 19.2254 0.147945 19.2998 0.123338 19.3802C0.0987303 19.4607 0.0916984 19.5454 0.102709 19.6287V19.6287ZM15.2648 26.446L11.1058 29.7369H7.88768L3.72619 26.4485L3.00299 21.5245H15.9805L15.2648 26.446Z" fill="#121312"/>
</svg>
