<svg width="8" height="19" viewBox="0 0 8 19" fill="none" xmlns="http://www.w3.org/2000/svg">
<path d="M4.1415 4.86038C5.36737 4.86038 6.36113 3.87012 6.36113 2.64857C6.36113 1.42703 5.36737 0.436768 4.1415 0.436768C2.91564 0.436768 1.92188 1.42703 1.92188 2.64857C1.92188 3.87012 2.91564 4.86038 4.1415 4.86038Z" fill="#121312" fill-opacity="0.3"/>
<path d="M7.46356 11.9937L6.95859 6.96297C6.90199 6.39454 6.42699 5.96655 5.85544 5.96655H2.42056C1.8479 5.96655 1.3729 6.39454 1.3163 6.96186L0.811333 11.9937C0.795795 12.1496 0.846846 12.3034 0.952279 12.4206C1.0566 12.5356 1.20643 12.602 1.36291 12.602H1.96998L2.425 17.1362C2.4816 17.7024 2.95771 18.1315 3.53038 18.1315H4.74562C5.31829 18.1315 5.79329 17.7024 5.84989 17.1362L6.30491 12.602H6.91198C7.06957 12.602 7.21829 12.5356 7.32372 12.4206C7.42915 12.3045 7.4802 12.1496 7.46356 11.9937Z" fill="#121312" fill-opacity="0.3"/>
</svg>
