<svg xmlns="http://www.w3.org/2000/svg" xmlns:xlink="http://www.w3.org/1999/xlink" xmlns:bx="https://boxy-svg.com">
    <symbol id="icon-cities" viewBox="0 0 14 14">
        <path d="M6.8825 0.430664C4.36693 0.430664 2.32031 2.47728 2.32031 4.99285C2.32031 8.15466 6.88699 13.5557 6.88699 13.5557C6.88699 13.5557 11.4447 7.99917 11.4447 4.99285C11.4447 2.47728 9.39815 0.430664 6.8825 0.430664ZM8.25901 6.32866C7.87945 6.70814 7.38102 6.89791 6.8825 6.89791C6.38406 6.89791 5.88547 6.70814 5.50607 6.32866C4.74704 5.56971 4.74704 4.33476 5.50607 3.57573C5.87361 3.20803 6.36251 3.00552 6.8825 3.00552C7.40249 3.00552 7.89131 3.20811 8.25901 3.57573C9.01804 4.33476 9.01804 5.56971 8.25901 6.32866Z"/>
    </symbol>
    <symbol id="icon-cities-arrow" viewBox="0 0 7 7">
        <path d="M6.88811 1.7783L6.65882 1.54742C6.58665 1.47531 6.49065 1.43558 6.38804 1.43558C6.28548 1.43558 6.18936 1.47531 6.1172 1.54742L3.50156 4.16316L0.882918 1.54451C0.810868 1.47241 0.714746 1.43274 0.612192 1.43274C0.509638 1.43274 0.413459 1.47241 0.341352 1.54451L0.112001 1.77398C-0.0373336 1.9232 -0.0373336 2.16627 0.112001 2.31549L3.22981 5.44451C3.30186 5.51656 3.39787 5.56733 3.50134 5.56733H3.50253C3.60514 5.56733 3.70115 5.51651 3.7732 5.44451L6.88811 2.32397C6.96028 2.25192 6.99989 2.15301 7 2.05045C7 1.94784 6.96028 1.8503 6.88811 1.7783Z"/>
    </symbol>
    <symbol id="icon-people-count" viewBox="0 0 7 16">
        <path d="M3.60207 3.76044C4.6422 3.76044 5.48539 2.92023 5.48539 1.88376C5.48539 0.847299 4.6422 0.00708008 3.60207 0.00708008C2.56194 0.00708008 1.71875 0.847299 1.71875 1.88376C1.71875 2.92023 2.56194 3.76044 3.60207 3.76044Z" fill="#121312" fill-opacity="0.3"/>
        <path d="M6.42398 9.81293L5.99552 5.54442C5.9475 5.06211 5.54447 4.69897 5.05951 4.69897H2.14507C1.65918 4.69897 1.25615 5.06211 1.20812 5.54348L0.779668 9.81293C0.766484 9.94524 0.809801 10.0757 0.899258 10.1751C0.987774 10.2727 1.1149 10.329 1.24767 10.329H1.76276L2.14884 14.1762C2.19687 14.6566 2.60084 15.0207 3.08674 15.0207H4.11785C4.60375 15.0207 5.00678 14.6566 5.05481 14.1762L5.44089 10.329H5.95597C6.08969 10.329 6.21587 10.2727 6.30533 10.1751C6.39479 10.0766 6.4381 9.94524 6.42398 9.81293Z" fill="#121312" fill-opacity="0.3"/>
    </symbol>
    <symbol id="icon-search" viewBox="0 0 13 13">
        <path d="M9.29102 8.1761H8.70383L8.49571 7.97541C9.22413 7.12807 9.66266 6.02802 9.66266 4.83133C9.66266 2.16295 7.49971 0 4.83133 0C2.16295 0 0 2.16295 0 4.83133C0 7.49971 2.16295 9.66266 4.83133 9.66266C6.02802 9.66266 7.12807 9.22413 7.97541 8.49571L8.1761 8.70383V9.29102L11.8925 13L13 11.8925L9.29102 8.1761V8.1761ZM4.83133 8.1761C2.98056 8.1761 1.48656 6.6821 1.48656 4.83133C1.48656 2.98056 2.98056 1.48656 4.83133 1.48656C6.6821 1.48656 8.1761 2.98056 8.1761 4.83133C8.1761 6.6821 6.6821 8.1761 4.83133 8.1761Z"/>
    </symbol>
    <symbol id="icon-slider-next" viewBox="0 0 11 17">
        <path d="M1.3197 0.271732L0.758972 0.82859C0.583857 1.00384 0.487384 1.23701 0.487384 1.4862C0.487384 1.73526 0.583856 1.9687 0.758972 2.14396L7.11149 8.4962L0.751919 14.8558C0.576804 15.0307 0.480469 15.2642 0.480469 15.5132C0.480469 15.7623 0.576803 15.9959 0.751918 16.171L1.30919 16.728C1.67158 17.0907 2.26189 17.0907 2.62428 16.728L10.2233 9.15617C10.3983 8.98119 10.5216 8.74803 10.5216 8.49676L10.5216 8.49386C10.5216 8.24466 10.3982 8.01149 10.2233 7.83652L2.64488 0.271733C2.4699 0.0964793 2.22969 0.000282849 1.98063 6.34775e-06C1.73144 6.2715e-06 1.49454 0.096479 1.3197 0.271732Z"/>
    </symbol>
    <symbol id="icon-slider-prev" viewBox="0 0 11 17">
        <path d="M9.6803 16.7283L10.241 16.1714C10.4161 15.9962 10.5126 15.763 10.5126 15.5138C10.5126 15.2647 10.4161 15.0313 10.241 14.856L3.88851 8.5038L10.2481 2.14423C10.4232 1.96925 10.5195 1.73581 10.5195 1.48675C10.5195 1.23769 10.4232 1.00411 10.2481 0.828998L9.69081 0.272002C9.32842 -0.0906676 8.73811 -0.0906678 8.37572 0.272002L0.776653 7.84383C0.601676 8.01881 0.47839 8.25197 0.47839 8.50324L0.47839 8.50615C0.47839 8.75534 0.601814 8.98851 0.776653 9.16348L8.35512 16.7283C8.5301 16.9035 8.77031 16.9997 9.01937 17C9.26857 17 9.50546 16.9035 9.6803 16.7283Z"/>
    </symbol>
    <symbol id="icon-social-1" viewBox="0 0 23 23">
        <path d="M9.13624 17.4692L9.39786 13.5168L16.5738 7.051C16.8915 6.76134 16.5084 6.62119 16.0879 6.87347L7.23013 12.4703L3.39922 11.2557C2.57697 11.0221 2.56763 10.4521 3.58609 10.041L18.5079 4.28527C19.19 3.97693 19.8441 4.45345 19.5825 5.49995L17.041 17.4692C16.8635 18.3195 16.3496 18.525 15.6394 18.1326L11.7712 15.2734L9.91176 17.0768C9.69686 17.2917 9.51933 17.4692 9.13624 17.4692Z"/>
    </symbol>
    <symbol id="icon-social-2" viewBox="0 0 20 20">
        <path fill-rule="evenodd" clip-rule="evenodd" d="M9.76505 19.7173C4.37845 19.7173 0.0117188 15.3506 0.0117188 9.964C0.0117188 4.57739 4.37845 0.210663 9.76505 0.210663C15.1517 0.210663 19.5184 4.57739 19.5184 9.964C19.5184 15.3506 15.1517 19.7173 9.76505 19.7173ZM10.0865 15.3903C13.2842 15.389 15.8849 12.7877 15.8861 9.59073C15.8868 8.04109 15.2841 6.58398 14.1891 5.48779C13.0941 4.39155 11.6379 3.78756 10.0865 3.78689C6.88977 3.78689 4.28807 6.38847 4.28677 9.58614C4.28636 10.6083 4.5534 11.606 5.06094 12.4856L4.23816 15.4909L7.31262 14.6844C8.15973 15.1464 9.11349 15.39 10.0841 15.3903H10.0865Z"/>
        <path fill-rule="evenodd" clip-rule="evenodd" d="M7.45472 13.6345L5.63028 14.1131L6.11725 12.3342L6.00265 12.1518C5.52011 11.3844 5.26526 10.4973 5.26563 9.58651C5.26668 6.92872 7.42912 4.76645 10.0881 4.76645C11.3756 4.7669 12.5859 5.26895 13.496 6.18011C14.4061 7.09128 14.907 8.30236 14.9066 9.59041C14.9055 12.2484 12.7431 14.4109 10.0862 14.4109H10.0842C9.21922 14.4105 8.37084 14.1781 7.63073 13.7389L7.45472 13.6345ZM13.008 10.9699C12.9718 10.9094 12.8752 10.8732 12.7303 10.8006C12.5853 10.7281 11.8729 10.3775 11.7401 10.3291C11.6072 10.2808 11.5106 10.2566 11.414 10.4016C11.3174 10.5467 11.0397 10.8732 10.9552 10.9699C10.8706 11.0666 10.7861 11.0787 10.6412 11.0061C10.4963 10.9336 10.0294 10.7806 9.47586 10.2869C9.04504 9.9026 8.75419 9.4281 8.66966 9.28302C8.58513 9.13793 8.66068 9.0595 8.73322 8.98725C8.79841 8.9223 8.87814 8.81794 8.9506 8.73337C9.02306 8.64876 9.0472 8.58829 9.09548 8.49165C9.1438 8.39489 9.11966 8.31028 9.08341 8.23774C9.0472 8.1652 8.75736 7.45191 8.63662 7.16175C8.51897 6.87918 8.39953 6.91747 8.31058 6.913C8.22613 6.90877 8.12945 6.90787 8.03285 6.90787C7.93625 6.90787 7.77922 6.94412 7.64641 7.08921C7.51357 7.23429 7.1392 7.58488 7.1392 8.29813C7.1392 9.01143 7.65848 9.7005 7.73094 9.79722C7.8034 9.89394 8.75277 11.3576 10.2065 11.9853C10.5522 12.1346 10.8221 12.2238 11.0326 12.2906C11.3797 12.4009 11.6957 12.3853 11.9453 12.348C12.2238 12.3064 12.8027 11.9975 12.9235 11.659C13.0442 11.3204 13.0442 11.0303 13.008 10.9699Z"/>
    </symbol>
    <symbol id="icon-social-3" viewBox="0 0 25 17">
        <path d="M12.8498 16.6336C10.1708 16.5517 7.62312 16.4879 5.07547 16.3924C4.52654 16.3696 3.96821 16.2877 3.43335 16.1648C2.42931 15.9371 1.73492 15.3499 1.37834 14.3895C1.09215 13.6156 0.988926 12.819 0.913858 12.0087C0.749645 10.106 0.749645 8.20324 0.829406 6.30049C0.876323 5.22621 0.904474 4.14283 1.20006 3.10041C1.37834 2.47678 1.59417 1.86681 2.11496 1.41616C2.6639 0.938195 3.30667 0.651417 4.03859 0.619552C6.04668 0.52396 8.05007 0.405607 10.0582 0.387399C12.7606 0.360086 15.4678 0.396503 18.1703 0.446575C19.3385 0.469335 20.5162 0.528512 21.675 0.674177C22.7354 0.810738 23.5283 1.38429 23.9505 2.38574C24.2743 3.15504 24.3963 3.96075 24.4666 4.78011C24.6496 6.83308 24.6543 8.88605 24.5511 10.939C24.4995 11.9814 24.4479 13.0284 24.1429 14.0435C23.7957 15.2088 23.0591 15.9781 21.8299 16.2421C21.3513 16.3423 20.854 16.3787 20.366 16.3969C17.8137 16.4834 15.266 16.5608 12.8498 16.6336ZM10.2552 11.4579C12.3947 10.3837 14.5107 9.31849 16.6689 8.23055C14.5154 7.13807 12.3994 6.06834 10.2552 4.9804C10.2552 7.15172 10.2552 9.28662 10.2552 11.4579Z"/>
    </symbol>
    <symbol id="icon-social-4" viewBox="0 0 21 20">
        <path fill-rule="evenodd" clip-rule="evenodd" d="M0.789062 9.964C0.789062 4.57739 5.15579 0.210663 10.5424 0.210663C15.929 0.210663 20.2957 4.57739 20.2957 9.964C20.2957 15.3506 15.929 19.7173 10.5424 19.7173C5.15579 19.7173 0.789062 15.3506 0.789062 9.964ZM10.5429 4.76222C9.13015 4.76222 8.95285 4.7684 8.398 4.79363C7.84422 4.81899 7.46624 4.90669 7.13548 5.03531C6.79334 5.16816 6.50313 5.34591 6.21399 5.63514C5.92464 5.92429 5.74689 6.21449 5.61359 6.55651C5.48464 6.88739 5.39686 7.26549 5.37195 7.81904C5.34712 8.37392 5.34062 8.55131 5.34062 9.96404C5.34062 11.3768 5.34692 11.5535 5.37203 12.1084C5.39751 12.6622 5.48517 13.0402 5.61371 13.3709C5.74668 13.7131 5.9244 14.0033 6.21366 14.2924C6.50269 14.5818 6.79289 14.7599 7.13483 14.8928C7.46579 15.0214 7.84389 15.1091 8.39756 15.1344C8.95244 15.1597 9.12963 15.1659 10.5422 15.1659C11.9551 15.1659 12.1318 15.1597 12.6867 15.1344C13.2405 15.1091 13.6189 15.0214 13.9499 14.8928C14.2919 14.7599 14.5817 14.5818 14.8707 14.2924C15.16 14.0033 15.3378 13.7131 15.4711 13.371C15.599 13.0402 15.6868 12.6621 15.7128 12.1085C15.7377 11.5536 15.7442 11.3768 15.7442 9.96404C15.7442 8.55131 15.7377 8.37404 15.7128 7.81916C15.6868 7.26537 15.599 6.88739 15.4711 6.55663C15.3378 6.21449 15.16 5.92429 14.8707 5.63514C14.5813 5.34579 14.292 5.16808 13.9496 5.03531C13.6179 4.90669 13.2397 4.81899 12.6859 4.79363C12.1311 4.7684 11.9544 4.76222 10.5413 4.76222H10.5429Z"/>
        <path fill-rule="evenodd" clip-rule="evenodd" d="M10.0751 5.69963C10.2136 5.69943 10.3681 5.69963 10.5417 5.69963C11.9306 5.69963 12.0952 5.70463 12.6437 5.72954C13.1509 5.75275 13.4262 5.83748 13.6095 5.90868C13.8523 6.00296 14.0254 6.11565 14.2073 6.29772C14.3894 6.47978 14.5021 6.65319 14.5966 6.89596C14.6678 7.07908 14.7526 7.35437 14.7757 7.86154C14.8006 8.40988 14.8061 8.57463 14.8061 9.96286C14.8061 11.3511 14.8006 11.5158 14.7757 12.0642C14.7525 12.5713 14.6678 12.8466 14.5966 13.0298C14.5023 13.2725 14.3894 13.4454 14.2073 13.6273C14.0252 13.8094 13.8524 13.9221 13.6095 14.0164C13.4264 14.0879 13.1509 14.1724 12.6437 14.1956C12.0954 14.2206 11.9306 14.226 10.5417 14.226C9.15275 14.226 8.98812 14.2206 8.43978 14.1956C7.93261 14.1722 7.65732 14.0875 7.47387 14.0163C7.2311 13.922 7.05769 13.8093 6.87563 13.6272C6.69357 13.4452 6.58088 13.2722 6.48639 13.0293C6.41519 12.8462 6.33034 12.5709 6.30725 12.0638C6.2823 11.5154 6.27734 11.3507 6.27734 9.96156C6.27734 8.57244 6.2823 8.40858 6.30725 7.86024C6.33042 7.35307 6.41519 7.07778 6.48639 6.89442C6.58067 6.65168 6.69357 6.47828 6.87563 6.29621C7.05769 6.11415 7.2311 6.00146 7.47387 5.90693C7.65724 5.83541 7.93261 5.75088 8.43978 5.72759C8.91964 5.70593 9.10561 5.69943 10.0751 5.69833V5.69963ZM13.3184 6.56333C12.9738 6.56333 12.6942 6.84264 12.6942 7.18734C12.6942 7.53196 12.9738 7.81156 13.3184 7.81156C13.6631 7.81156 13.9427 7.53196 13.9427 7.18734C13.9427 6.84272 13.6631 6.56333 13.3184 6.56333ZM10.5417 7.29268C9.06647 7.29268 7.87039 8.4888 7.87039 9.96404C7.87039 11.4393 9.06647 12.6349 10.5417 12.6349C12.017 12.6349 13.2127 11.4393 13.2127 9.96404C13.2127 8.4888 12.017 7.29268 10.5417 7.29268Z"/>
        <path fill-rule="evenodd" clip-rule="evenodd" d="M10.5425 8.2301C11.5001 8.2301 12.2765 9.00639 12.2765 9.96404C12.2765 10.9216 11.5001 11.698 10.5425 11.698C9.58484 11.698 8.80859 10.9216 8.80859 9.96404C8.80859 9.00639 9.58484 8.2301 10.5425 8.2301Z"/>
    </symbol>
    <symbol id="icon-social-5" viewBox="0 0 25 24">
        <path d="M2.10218 5.27216C2.87951 5.27216 4.06401 5.27216 4.7303 5.27216C5.06344 5.27216 5.32255 5.49425 5.4336 5.79038C5.76674 6.75279 6.50706 8.86269 7.35842 10.3063C8.50591 12.1941 9.24622 12.8974 9.72743 12.8234C10.2086 12.7123 10.0606 11.4538 10.0606 10.4544C10.0606 9.45494 10.1716 7.75221 9.69041 6.97488L8.9501 5.90142C8.76502 5.64231 8.9501 5.30917 9.24622 5.30917H13.466C13.8732 5.30917 14.2063 5.64231 14.2063 6.04949V11.4168C14.2063 11.4168 14.3914 12.3792 15.4279 11.3798C16.4643 10.3803 17.5748 8.52954 18.5002 6.64174L18.8703 5.75336C18.9814 5.49425 19.2405 5.30917 19.5366 5.30917H22.2758C22.794 5.30917 23.1642 5.82739 22.9791 6.3086L22.683 7.08593C22.683 7.08593 21.6835 9.08478 20.6471 10.4914C19.6106 11.935 19.3885 12.2681 19.5366 12.6383C19.6847 13.0085 22.3498 15.4885 23.0161 16.673C23.2012 17.0062 23.3492 17.3023 23.4973 17.5614C23.7564 18.0426 23.3863 18.6719 22.831 18.6719H19.7217C19.4626 18.6719 19.2035 18.5238 19.0924 18.3017L18.7963 17.8205C18.7963 17.8205 16.9085 15.5996 15.761 14.8963C14.5765 14.23 14.6135 15.1924 14.6135 15.1924V17.1542C14.6135 17.9686 13.9472 18.6349 13.1329 18.6349H12.3926C12.3926 18.6349 8.32083 18.6349 5.06344 13.7858C2.50935 10.0102 1.65799 7.56713 1.36186 6.16053C1.28783 5.71634 1.62097 5.27216 2.10218 5.27216Z"/>
    </symbol>
    <symbol id="icon-menu" viewBox="0 0 40 40" fill="none">
        <rect x="1" y="1" width="38" height="38" rx="2" stroke="#F15E13" stroke-width="2"></rect>
        <rect x="8" y="13" width="24" height="2" rx="1" fill="#F15E13"></rect>
        <rect x="8" y="19" width="24" height="2" rx="1" fill="#F15E13"></rect>
        <rect x="8" y="25" width="24" height="2" rx="1" fill="#F15E13"></rect>
    </symbol>
    <symbol id="iconlinext" viewBox="">

    </symbol>
    <symbol id="iconlinext" viewBox="">

    </symbol>
    <symbol id="iconlinext" viewBox="">

    </symbol>
    <symbol id="iconlinext" viewBox="">

    </symbol>
    <symbol id="iconlinext" viewBox="">

    </symbol>
    <symbol id="iconlinext" viewBox="">

    </symbol>
    <symbol id="iconlinext" viewBox="">

    </symbol>
    <symbol id="iconlinext" viewBox="">

    </symbol>
    <symbol id="iconlinext" viewBox="">

    </symbol>
    <symbol id="iconlinext" viewBox="">

    </symbol>
    <!-- new -->
    <symbol id="check" viewBox="0 0 11 11">
        <path d="M9.81883 2.79172L9.24452 2.32949C8.96144 2.10197 8.7969 2.10461 8.55453 2.40398L4.38036 7.55529L2.43781 5.94133C2.16981 5.7162 2.00217 5.72818 1.78183 6.0036L1.33852 6.58078C1.11364 6.86387 1.14238 7.02457 1.40822 7.24658L4.17679 9.53664C4.46179 9.77614 4.62225 9.75147 4.84259 9.48347L9.89092 3.48147C10.128 3.19647 10.1137 3.02619 9.81883 2.79172Z"/>
    </symbol>
    <symbol id="meccano-next" viewBox="0 0 22 16">
        <path d="M21.7071 8.70711C22.0976 8.31658 22.0976 7.68342 21.7071 7.29289L15.3431 0.928932C14.9526 0.538408 14.3195 0.538408 13.9289 0.928932C13.5384 1.31946 13.5384 1.95262 13.9289 2.34315L19.5858 8L13.9289 13.6569C13.5384 14.0474 13.5384 14.6805 13.9289 15.0711C14.3195 15.4616 14.9526 15.4616 15.3431 15.0711L21.7071 8.70711ZM0 9L21 9V7L0 7L0 9Z"/>
    </symbol>
    <symbol id="tinge-add" viewBox="0 0 20 19">
        <path d="M20 8.48936H11.0638V0H8.93617V8.48936H0V10.5106H8.93617V19H11.0638V10.5106H20V8.48936Z"/>
    </symbol>
    <symbol id="popup-close" viewBox="0 0 28 28">
        <path d="M15.0404 14L27.7846 1.25582C28.0719 0.968551 28.0719 0.502805 27.7846 0.21554C27.4973 -0.0717242 27.0316 -0.0717242 26.7443 0.21554L14.0001 12.9596L1.25588 0.215448C0.96862 -0.0718161 0.502873 -0.0718161 0.215609 0.215448C-0.0717472 0.502713 -0.0717472 0.968459 0.215609 1.25572L12.9597 14L0.215517 26.7442C-0.0718391 27.0315 -0.0718391 27.4972 0.215517 27.7846C0.359149 27.9282 0.547379 28 0.735701 28C0.924023 28 1.11225 27.9282 1.25588 27.7846L14.0001 15.0404L26.7443 27.7846C26.888 27.9282 27.0761 28 27.2644 28C27.4528 28 27.641 27.9282 27.7846 27.7846C28.0719 27.4972 28.0719 27.0315 27.7846 26.7442L15.0404 14Z" fill="#121312"/>
    </symbol>
    <symbol id="play" viewBox="0 0 15 17">
        <path d="M15 8.5L0.749999 16.7272L0.75 0.272758L15 8.5Z" fill="#ffffff"/>
    </symbol>
    <symbol id="play-border" viewBox="0 0 66 132" fill="none">
        <path d="M66 131C30.1015 131 1 101.899 1 66C1 30.1015 30.1015 1 66 1" stroke="#F15E13" stroke-width="2"/>
    </symbol>
</svg>