<svg width="96" height="1426" viewBox="0 0 96 1426" fill="none" xmlns="http://www.w3.org/2000/svg">
<path fill-rule="evenodd" clip-rule="evenodd" d="M54.6294 90.6728L68.0075 103.228L81.3511 90.6836L94.6145 103.153V103.142V88.0733L81.3511 75.5932L67.996 88.1488L54.618 75.604L41.2858 88.1488L27.9651 75.5932L14.61 88.1488L14.587 88.1272L1.11719 75.4854V90.5542L14.61 103.228L27.9536 90.6836L41.2743 103.228L54.6294 90.6728ZM47.8027 117.326L94.5571 105.191L94.4653 117.359L71.1856 123.367L94.4653 129.386L94.5571 141.477L47.8027 129.407L1.11719 141.413V129.386L24.4083 123.367L1.14013 117.359L1.11719 105.31L47.8027 117.326Z" fill="#121312" fill-opacity="0.06"/>
<g clip-path="url(#clip0_136_5)">
<path fill-rule="evenodd" clip-rule="evenodd" d="M26.207 421.913V433.416C31.31 433.412 36.2664 432.097 40.5542 429.671C39.6106 432.536 37.9216 435.173 35.5989 437.33C31.8781 440.785 26.8347 442.728 21.5742 442.734V454.237C27.5713 454.231 33.3948 452.674 38.4232 449.805C37.1152 453.415 34.922 456.733 31.9696 459.477C26.9477 464.146 20.1387 466.773 13.0352 466.785V478.277C23.4201 478.266 33.3762 474.428 40.7194 467.604C40.9569 467.384 41.1911 467.16 41.4219 466.935V485.344H53.8018V466.489C54.1757 466.867 54.559 467.239 54.9514 467.604C62.2928 474.427 72.2477 478.266 82.6316 478.277V466.785C75.528 466.773 68.7191 464.146 63.6972 459.477C60.7707 456.757 58.5902 453.473 57.2783 449.9C62.2649 452.706 68.0214 454.229 73.948 454.237V442.734C68.6886 442.728 63.6463 440.784 59.9274 437.329C57.6051 435.171 55.9173 432.534 54.9756 429.668C59.2645 432.096 64.2228 433.412 69.3278 433.416V421.913C65.2897 421.91 61.4177 420.419 58.5612 417.767C55.7047 415.115 54.0971 411.518 54.0911 407.766H53.8122H41.7227H41.4323L41.4321 407.829H41.4219V408.28C41.2798 411.844 39.6936 415.235 36.9696 417.766C34.1149 420.419 30.2441 421.91 26.207 421.913ZM76.7814 537.434L55.9227 552.946H39.768L18.8863 537.413L15.2722 514.247H80.407L76.7814 537.434ZM0.666461 505.313L6.28846 541.347C6.55 542.987 7.46775 544.476 8.85851 545.515L33.2396 563.639C34.4916 564.574 36.0507 565.082 37.6569 565.078H58.0108C59.6078 565.069 61.1554 564.563 62.4052 563.639L86.7404 545.515C88.1347 544.479 89.0533 542.989 89.3104 541.347L94.9783 505.313C95.0409 504.917 95.0109 504.512 94.8903 504.127C94.7697 503.742 94.5614 503.386 94.2795 503.083C93.9976 502.779 93.6487 502.536 93.2565 502.369C92.8643 502.202 92.4381 502.115 92.0067 502.115H3.66104C3.22713 502.11 2.79735 502.194 2.40144 502.359C2.00554 502.524 1.65297 502.767 1.36815 503.071C1.08333 503.375 0.873064 503.733 0.751906 504.12C0.630747 504.508 0.601593 504.915 0.666461 505.313ZM47.8223 617.39L94.5881 605.397L94.4848 617.422L71.2167 623.361L94.4848 629.309L94.5881 641.26L47.8223 629.331L1.13672 641.196V629.309L24.4393 623.361L1.15967 617.422L1.13672 605.504L47.8223 617.39ZM47.9105 601.247L47.9255 601.261L61.2462 588.862L74.5898 601.25L74.6013 601.24L74.6035 601.238L74.6056 601.24L74.6286 601.25L87.9722 588.852L94.5924 595.003V580.099L88.0869 574.065L87.9722 573.948L87.97 573.95L87.9679 573.948L85.8224 575.941L74.6128 586.336L74.6035 586.344L65.7022 578.084L61.2505 573.948L61.2484 573.95L61.2462 573.948L57.9074 577.05L56.0302 578.798L47.9184 586.336L47.9105 586.339L47.9026 586.336L39.7897 578.797L37.9135 577.05L34.5862 573.948L34.584 573.95L34.5819 573.948L30.1302 578.084L21.2174 586.344L21.2081 586.336L9.99855 575.941L7.85302 573.948L7.85096 573.95L7.8487 573.948L7.73396 574.065L1.13672 580.184V595.088L7.8487 588.852L21.1923 601.25L21.2153 601.24L21.2174 601.238L21.2196 601.24L21.2311 601.25L34.5747 588.862L47.8954 601.261L47.9105 601.247ZM13.1103 407.828H0.730469V455.237H13.1103V407.828ZM82.6367 407.829H95.0166V455.238H82.6367V407.829Z" fill="#121312" fill-opacity="0.06"/>
</g>
<g clip-path="url(#clip1_136_5)">
<path d="M27.5196 341.415L41.013 328.743L54.4875 341.423L67.9241 328.75L81.3878 341.415L95.0028 328.615V314.577L81.4148 327.349L81.3932 327.369L67.916 314.689L54.4794 327.359L41.0211 314.696L27.5277 327.369L14.0587 314.691L0.667969 327.29L0.670672 341.415L14.0587 328.748L27.5196 341.415Z" fill="#121312" fill-opacity="0.06"/>
<path d="M95.0028 351.422L47.7624 363.703L0.667969 351.562L0.68689 363.734L24.1679 369.806L0.667969 375.883V388.019L47.7624 375.906L95.0028 388.09V375.931L71.3569 369.806L95.0028 363.658V351.422Z" fill="#121312" fill-opacity="0.06"/>
<path d="M71.2839 206.097L95.0028 183.748V169.61L71.2839 191.959L27.5223 150.729L0.667969 176.033V190.171L27.5223 164.866L71.2839 206.097Z" fill="#121312" fill-opacity="0.06"/>
<path d="M95.0028 229.515C88.1615 229.515 84.5016 226.552 81.8311 224.387C79.766 222.711 78.728 221.869 76.1331 221.869C73.5383 221.869 72.503 222.711 70.4325 224.387C67.7646 226.552 64.1075 229.515 57.2662 229.515C50.4249 229.515 46.7677 226.552 44.0971 224.387C42.032 222.711 40.9914 221.869 38.3992 221.869C35.807 221.869 34.7691 222.711 32.7013 224.387C30.0307 226.557 26.3735 229.515 19.5322 229.515C12.6909 229.515 9.04728 226.557 6.3659 224.392C4.2981 222.716 3.26015 221.884 0.667969 221.884V209.636C7.50927 209.636 11.1664 212.599 13.837 214.764C15.9021 216.44 16.9428 217.282 19.5322 217.282C22.1217 217.282 23.1624 216.44 25.2329 214.764C27.9007 212.599 31.5579 209.636 38.3992 209.636C45.2405 209.636 48.8977 212.599 51.5682 214.761C53.636 216.438 54.6767 217.28 57.2662 217.28C59.8556 217.28 60.8963 216.438 62.9641 214.759C65.6347 212.597 69.2918 209.633 76.1331 209.633C82.9744 209.633 86.6235 212.599 89.3049 214.761C91.3727 216.44 92.4106 217.282 95.0028 217.282V229.515Z" fill="#121312" fill-opacity="0.06"/>
<path d="M78.5142 150.66H63.918V164.396H78.5142V150.66Z" fill="#121312" fill-opacity="0.06"/>
<path d="M76.6718 275.978L55.9641 291.581L39.9218 291.612L19.1843 275.981L15.5866 252.662H80.2722L76.6718 275.978ZM1.10935 243.655L6.69916 279.9C6.95458 281.552 7.8665 283.051 9.2508 284.095L33.4589 302.343C34.7051 303.283 36.2547 303.793 37.8513 303.791L58.0725 303.753C59.6582 303.75 61.1958 303.24 62.4324 302.305L86.6054 284.095C87.9913 283.052 88.9044 281.553 89.1597 279.9L94.7495 243.655C94.8112 243.258 94.7812 242.852 94.6616 242.467C94.542 242.081 94.3355 241.724 94.0562 241.42C93.7769 241.116 93.4314 240.873 93.0431 240.706C92.6548 240.539 92.2328 240.452 91.8059 240.453H4.05022C3.62354 240.453 3.20189 240.539 2.81392 240.707C2.42596 240.874 2.08075 241.117 1.80177 241.421C1.52278 241.725 1.31654 242.082 1.19707 242.467C1.07759 242.853 1.04768 243.258 1.10935 243.655Z" fill="#121312" fill-opacity="0.06"/>
</g>
<path fill-rule="evenodd" clip-rule="evenodd" d="M11.082 699.665H1.04688L17.2704 655.16L32.3661 696.572L47.4618 655.16L62.9383 697.617L78.4149 655.16L94.6384 699.665H84.6216V705.221H72.2188V699.665H63.6852H62.1914H53.6606V705.221H41.2578V699.665H33.4938H31.2383H23.4848V705.221H11.082V699.665ZM17.2933 681.63L13.8513 691.036H20.7353L17.2933 681.63ZM47.4732 681.63L44.0312 691.036H50.9153L47.4732 681.63ZM78.4264 681.63L81.8684 691.036H74.9843L78.4264 681.63Z" fill="#121312" fill-opacity="0.06"/>
<g clip-path="url(#clip2_136_5)">
<path d="M71.2449 775.924L94.9637 753.575V739.437L71.2449 761.786L27.4832 720.555L0.628906 745.859V759.997L27.4832 734.693L71.2449 775.924Z" fill="#121312" fill-opacity="0.06"/>
<path d="M94.9637 799.341C88.1224 799.341 84.4626 796.377 81.792 794.213C79.7269 792.536 78.6889 791.694 76.0941 791.694C73.4992 791.694 72.4639 792.536 70.3934 794.213C67.7256 796.377 64.0684 799.341 57.2271 799.341C50.3858 799.341 46.7286 796.377 44.0581 794.213C41.993 792.536 40.9523 791.694 38.3601 791.694C35.768 791.694 34.73 792.536 32.6622 794.213C29.9916 796.382 26.3345 799.341 19.4932 799.341C12.6519 799.341 9.00822 796.382 6.32684 794.218C4.25904 792.541 3.22109 791.709 0.628906 791.709V779.462C7.47021 779.462 11.1274 782.425 13.7979 784.59C15.863 786.266 16.9037 787.108 19.4932 787.108C22.0826 787.108 23.1233 786.266 25.1938 784.59C27.8617 782.425 31.5188 779.462 38.3601 779.462C45.2014 779.462 48.8586 782.425 51.5292 784.587C53.597 786.263 54.6376 787.105 57.2271 787.105C59.8166 787.105 60.8572 786.263 62.925 784.585C65.5956 782.422 69.2528 779.459 76.0941 779.459C82.9354 779.459 86.5844 782.425 89.2658 784.587C91.3336 786.266 92.3716 787.108 94.9637 787.108V799.341Z" fill="#121312" fill-opacity="0.06"/>
<path d="M78.4751 720.484H63.8789V734.22H78.4751V720.484Z" fill="#121312" fill-opacity="0.06"/>
<path d="M76.6328 845.804L55.9251 861.407L39.8827 861.437L19.1453 845.806L15.5476 822.488H80.2332L76.6328 845.804ZM1.07029 813.481L6.6601 849.726C6.91552 851.378 7.82744 852.877 9.21174 853.921L33.4198 872.169C34.6661 873.108 36.2157 873.619 37.8122 873.617L58.0334 873.578C59.6192 873.576 61.1568 873.065 62.3933 872.131L86.5663 853.921C87.9522 852.878 88.8653 851.379 89.1207 849.726L94.7105 813.481C94.7722 813.083 94.7422 812.678 94.6226 812.292C94.5029 811.907 94.2964 811.55 94.0172 811.246C93.7379 810.942 93.3923 810.698 93.004 810.531C92.6157 810.364 92.1938 810.278 91.7669 810.278H4.01116C3.58448 810.278 3.16283 810.365 2.77486 810.532C2.38689 810.699 2.04169 810.943 1.7627 811.247C1.48372 811.551 1.27748 811.907 1.15801 812.293C1.03853 812.678 1.00861 813.084 1.07029 813.481Z" fill="#121312" fill-opacity="0.06"/>
</g>
<path fill-rule="evenodd" clip-rule="evenodd" d="M11.082 918.364H1.04688L17.2704 873.859L32.3661 915.27L47.4618 873.859L62.9383 916.315L78.4149 873.859L94.6384 918.364H84.6216V923.919H72.2188V918.364H63.6852H62.1914H53.6606V923.919H41.2578V918.364H33.4938H31.2383H23.4848V923.919H11.082V918.364ZM17.2933 900.329L13.8513 909.735H20.7353L17.2933 900.329ZM47.4732 900.329L44.0312 909.735H50.9153L47.4732 900.329ZM78.4264 900.329L81.8684 909.735H74.9843L78.4264 900.329Z" fill="#121312" fill-opacity="0.06"/>
<path d="M75.5937 35.5254L54.886 51.1285L38.8437 51.159L18.1062 35.5279L14.5085 12.2098H79.1941L75.5937 35.5254ZM0.0312254 3.20252L5.62104 39.4478C5.87646 41.0996 6.78838 42.5987 8.17267 43.6423L32.3808 61.8909C33.627 62.83 35.1766 63.3407 36.7732 63.3382L56.9943 63.3001C58.5801 63.2974 60.1177 62.7869 61.3543 61.8527L85.5272 43.6423C86.9132 42.5996 87.8262 41.1002 88.0816 39.4478L93.6714 3.20252C93.7331 2.80499 93.7031 2.39962 93.5835 2.01397C93.4639 1.62831 93.2574 1.27143 92.9781 0.967575C92.6988 0.663723 92.3533 0.420035 91.965 0.253074C91.5767 0.0861135 91.1547 -0.000201268 90.7278 3.52406e-07H2.97209C2.54541 0.000163873 2.12377 0.0867454 1.7358 0.253866C1.34783 0.420987 1.00263 0.664729 0.723642 0.968538C0.444655 1.27235 0.238419 1.62911 0.118943 2.01458C-0.000532752 2.40005 -0.0304494 2.80521 0.0312254 3.20252Z" fill="#121312" fill-opacity="0.06"/>
<g clip-path="url(#clip3_136_5)">
<path fill-rule="evenodd" clip-rule="evenodd" d="M25.7188 1206.25V1217.76C30.8565 1217.75 35.8467 1216.44 40.164 1214.01C39.2137 1216.88 37.513 1219.51 35.1743 1221.67C31.4273 1225.12 26.3483 1227.07 21.0508 1227.07V1238.58C27.091 1238.57 32.9563 1237.01 38.0206 1234.14C36.7034 1237.75 34.4946 1241.07 31.5211 1243.82C26.4637 1248.49 19.6068 1251.11 12.4531 1251.12V1262.62C22.9113 1262.61 32.9376 1258.77 40.3326 1251.94C40.5715 1251.72 40.807 1251.5 41.0391 1251.28V1269.68H53.5062V1250.83C53.8832 1251.21 54.2695 1251.58 54.6652 1251.94C62.0583 1258.77 72.0834 1262.61 82.5405 1262.62V1251.12C75.3869 1251.11 68.5299 1248.49 63.4726 1243.82C60.5253 1241.1 58.3294 1237.81 57.0083 1234.24C62.0302 1237.05 67.8276 1238.57 73.7962 1238.58V1227.07C68.4997 1227.07 63.4219 1225.12 59.6768 1221.67C57.3382 1219.51 55.6384 1216.87 54.6901 1214.01C59.0092 1216.44 64.0025 1217.75 69.1435 1217.76V1206.25C65.077 1206.25 61.1776 1204.76 58.301 1202.11C55.4244 1199.45 53.8055 1195.86 53.7994 1192.11H53.5185H41.3438H41.0514L41.0512 1192.17H41.0391V1192.66C40.8848 1196.21 39.2893 1199.59 36.5572 1202.11C33.6824 1204.76 29.7843 1206.25 25.7188 1206.25ZM76.6504 1321.77L55.6446 1337.29H39.376L18.3471 1321.75L14.7074 1298.59H80.3016L76.6504 1321.77ZM-0.0012702 1289.65L5.66037 1325.69C5.92376 1327.33 6.84798 1328.82 8.24855 1329.86L32.8016 1347.98C34.0623 1348.91 35.6324 1349.42 37.25 1349.42H57.7475C59.3557 1349.41 60.9142 1348.9 62.1728 1347.98L86.6796 1329.86C88.0837 1328.82 89.0088 1327.33 89.2678 1325.69L94.9756 1289.65C95.0386 1289.26 95.0084 1288.85 94.8869 1288.47C94.7655 1288.08 94.5557 1287.73 94.2718 1287.42C93.9879 1287.12 93.6366 1286.88 93.2417 1286.71C92.8467 1286.54 92.4175 1286.46 91.983 1286.45H3.01442C2.57745 1286.45 2.14464 1286.53 1.74594 1286.7C1.34725 1286.86 0.992195 1287.11 0.705367 1287.41C0.41854 1287.71 0.206789 1288.07 0.0847767 1288.46C-0.0372359 1288.85 -0.0665957 1289.25 -0.0012702 1289.65ZM47.4874 1401.73L94.583 1389.74L94.479 1401.76L71.0467 1407.7L94.479 1413.65L94.583 1425.6L47.4874 1413.67L0.472656 1425.54V1413.65L23.9396 1407.7L0.495765 1401.76L0.472656 1389.84L47.4874 1401.73ZM47.5764 1385.59L47.5914 1385.6L61.006 1373.2L74.4437 1385.59L74.4553 1385.58L74.4576 1385.58L74.4599 1385.58L74.483 1385.59L87.9208 1373.19L94.5876 1379.34V1364.44L88.0363 1358.4L87.9208 1358.29L87.9183 1358.29L87.9161 1358.29L85.7554 1360.28L74.4668 1370.68L74.4576 1370.68L65.4937 1362.42L61.0107 1358.29L61.0083 1358.29L61.006 1358.29L57.6437 1361.39L55.6115 1363.27L47.5845 1370.68L47.5764 1370.68L47.5683 1370.68L39.5397 1363.27L37.5091 1361.39L34.1583 1358.29L34.156 1358.29L34.1536 1358.29L29.6705 1362.42L20.6951 1370.68L20.6859 1370.68L9.3973 1360.28L7.23664 1358.29L7.23441 1358.29L7.23196 1358.29L7.11642 1358.4L0.472656 1364.52V1379.43L7.23196 1373.19L20.6697 1385.59L20.6928 1385.58L20.6951 1385.58L20.6975 1385.58L20.709 1385.59L34.1468 1373.2L47.5614 1385.6L47.5764 1385.59ZM12.5336 1192.17H0.0664062V1239.58H12.5336V1192.17ZM82.5469 1192.17H95.014V1239.58H82.5469V1192.17Z" fill="#121312" fill-opacity="0.06"/>
</g>
<g clip-path="url(#clip4_136_5)">
<path d="M27.041 1125.76L40.6295 1113.08L54.199 1125.76L67.7304 1113.09L81.289 1125.76L95 1112.96V1098.92L81.3162 1111.69L81.2944 1111.71L67.7222 1099.03L54.1908 1111.7L40.6377 1099.04L27.0491 1111.71L13.4851 1099.03L0 1111.63L0.00272206 1125.76L13.4851 1113.09L27.041 1125.76Z" fill="#121312" fill-opacity="0.06"/>
<path d="M95 1135.76L47.4265 1148.04L0 1135.9L0.0190544 1148.07L23.6656 1154.15L0 1160.22V1172.36L47.4265 1160.25L95 1172.43V1160.27L71.1874 1154.15L95 1148V1135.76Z" fill="#121312" fill-opacity="0.06"/>
<path d="M71.1139 990.437L95 968.088V953.95L71.1139 976.299L27.0437 935.068L0 960.373V974.511L27.0437 949.206L71.1139 990.437Z" fill="#121312" fill-opacity="0.06"/>
<path d="M95 1013.85C88.1105 1013.85 84.4248 1010.89 81.7354 1008.73C79.6557 1007.05 78.6105 1006.21 75.9973 1006.21C73.3841 1006.21 72.3416 1007.05 70.2564 1008.73C67.5698 1010.89 63.8868 1013.85 56.9973 1013.85C50.1077 1013.85 46.4248 1010.89 43.7354 1008.73C41.6557 1007.05 40.6077 1006.21 37.9973 1006.21C35.3868 1006.21 34.3415 1007.05 32.2592 1008.73C29.5698 1010.9 25.8868 1013.85 18.9973 1013.85C12.1077 1013.85 8.4384 1010.9 5.73811 1008.73C3.65573 1007.06 2.61046 1006.22 0 1006.22V993.976C6.88954 993.976 10.5725 996.939 13.2619 999.104C15.3415 1000.78 16.3895 1001.62 18.9973 1001.62C21.605 1001.62 22.653 1000.78 24.7381 999.104C27.4248 996.939 31.1077 993.976 37.9973 993.976C44.8868 993.976 48.5698 996.939 51.2592 999.101C53.3415 1000.78 54.3895 1001.62 56.9973 1001.62C59.605 1001.62 60.653 1000.78 62.7354 999.099C65.4248 996.937 69.1077 993.973 75.9973 993.973C82.8868 993.973 86.5616 996.939 89.2619 999.101C91.3443 1000.78 92.3895 1001.62 95 1001.62V1013.85Z" fill="#121312" fill-opacity="0.06"/>
<path d="M78.3945 935H63.6953V948.736H78.3945V935Z" fill="#121312" fill-opacity="0.06"/>
<path d="M76.5408 1060.32L55.6871 1075.92L39.5316 1075.95L18.6479 1060.32L15.0249 1037H80.1666L76.5408 1060.32ZM0.445508 1028L6.07474 1064.24C6.33195 1065.89 7.25031 1067.39 8.64436 1068.43L33.0232 1086.68C34.2782 1087.62 35.8387 1088.13 37.4465 1088.13L57.8103 1088.09C59.4072 1088.09 60.9557 1087.58 62.201 1086.65L86.5444 1068.43C87.9401 1067.39 88.8596 1065.89 89.1167 1064.24L94.746 1028C94.8081 1027.6 94.7779 1027.19 94.6574 1026.81C94.5369 1026.42 94.329 1026.06 94.0478 1025.76C93.7665 1025.46 93.4185 1025.21 93.0275 1025.05C92.6365 1024.88 92.2115 1024.79 91.7816 1024.79H3.40711C2.97742 1024.79 2.55281 1024.88 2.1621 1025.05C1.7714 1025.21 1.42376 1025.46 1.14281 1025.76C0.861853 1026.06 0.654163 1026.42 0.533844 1026.81C0.413526 1027.19 0.383398 1027.6 0.445508 1028Z" fill="#121312" fill-opacity="0.06"/>
</g>
<defs>
<clipPath id="clip0_136_5">
<rect width="94.3348" height="233.494" fill="white" transform="translate(0.667969 407.766)"/>
</clipPath>
<clipPath id="clip1_136_5">
<rect width="94.3348" height="237.43" fill="white" transform="translate(0.667969 150.66)"/>
</clipPath>
<clipPath id="clip2_136_5">
<rect width="93.7767" height="153.699" fill="white" transform="translate(1.04688 720.16)"/>
</clipPath>
<clipPath id="clip3_136_5">
<rect width="95" height="233.494" fill="white" transform="translate(0 1192.11)"/>
</clipPath>
<clipPath id="clip4_136_5">
<rect width="95" height="237.43" fill="white" transform="translate(0 935)"/>
</clipPath>
</defs>
</svg>
