<svg width="75" height="62" viewBox="0 0 75 62" fill="none" xmlns="http://www.w3.org/2000/svg">
<path fill-rule="evenodd" clip-rule="evenodd" d="M71.4844 24.4259H66.7969V1.16406H56.25V33.1491L41.0156 25.1237V33.1491L26.9531 25.1237V33.1491L14.0625 25.1237V33.1491L3.51562 25.1237C2.22656 25.1237 1.17188 26.1705 1.17188 27.4499V57.1087C1.17188 58.3881 2.22656 59.4349 3.51562 59.4349H71.4844C72.7734 59.4349 73.8281 58.3881 73.8281 57.1087V26.8684C73.8281 25.4727 72.7734 24.4259 71.4844 24.4259Z" stroke="#A9A9A9" stroke-width="2"/>
<path d="M10.5469 38.3828H5.85938V43.0352H10.5469V38.3828Z" stroke="#A9A9A9" stroke-width="2"/>
<path d="M22.2656 38.3828H17.5781V43.0352H22.2656V38.3828Z" stroke="#A9A9A9" stroke-width="2"/>
<path d="M35.1562 38.3828H30.4688V43.0352H35.1562V38.3828Z" stroke="#A9A9A9" stroke-width="2"/>
<path d="M49.2188 38.3828H44.5312V43.0352H49.2188V38.3828Z" stroke="#A9A9A9" stroke-width="2"/>
<path d="M1.17188 54.7832H73.8281" stroke="#A9A9A9" stroke-width="2"/>
</svg>
