<svg width="75" height="75" viewBox="0 0 75 75" fill="none" xmlns="http://www.w3.org/2000/svg">
<path d="M65.625 39.0625H46.875V42.1875H65.625V39.0625Z" fill="#A9A9A9"/>
<path d="M65.625 29.6875H37.5V32.8125H65.625V29.6875Z" fill="#A9A9A9"/>
<path d="M68.75 4.6875H6.25C2.81242 4.6875 0 7.49992 0 10.9375V51.5625C0 54.9999 2.81242 57.8125 6.25 57.8125H12.5V70.3125L20.3124 62.5001L28.1248 70.3125V57.8125H68.75C72.1874 57.8125 75 54.9999 75 51.5625V10.9375C75 7.49992 72.1874 4.6875 68.75 4.6875ZM25 62.8123L20.3124 58.1248L15.6248 62.8123V50.6249C17.1873 51.2499 18.7498 51.5624 20.3124 51.5624C21.875 51.5624 23.4374 51.2499 25 50.6249V62.8123ZM20.3124 48.4375C15.9374 48.4375 12.5 45.0001 12.5 40.6251C12.5 36.2501 15.9376 32.8127 20.3124 32.8127C24.6873 32.8127 28.1248 36.2501 28.1248 40.6251C28.1248 45.0001 24.6874 48.4375 20.3124 48.4375ZM71.875 51.5624C71.875 53.4374 70.625 54.6874 68.75 54.6874H28.125V48.1249C30 46.2498 31.25 43.4373 31.25 40.6249C31.25 34.6875 26.25 29.6873 20.3124 29.6873C14.3748 29.6873 9.37484 34.6873 9.37484 40.6249C9.37484 43.7499 10.6248 46.2499 12.4998 48.1249V54.6874H6.25C4.375 54.6874 3.125 53.1249 3.125 51.5624V10.9375C3.125 9.0625 4.375 7.8125 6.25 7.8125H68.75C70.625 7.8125 71.875 9.37492 71.875 10.9375V51.5624Z" fill="#A9A9A9"/>
<path d="M65.625 20.3125H9.375V23.4375H65.625V20.3125Z" fill="#A9A9A9"/>
</svg>
