<svg width="70" height="70" viewBox="0 0 70 70" fill="none" xmlns="http://www.w3.org/2000/svg">
<g clip-path="url(#clip0_221_265)">
<path d="M35.0025 -0.123047C25.6192 -0.123047 16.7981 3.53008 10.1645 10.1648C3.52984 16.7995 -0.122187 25.6195 -0.121094 35.0016C-0.121094 44.3838 3.53203 53.1415 10.1645 59.7762C16.7981 66.4098 25.6181 70.0005 35.0003 70.0005C35.0014 70.0005 35.0025 70.0005 35.0025 70.0005H35.0058C54.3717 70.0005 70.1261 54.3041 70.125 34.9382C70.1261 25.556 66.4719 16.7666 59.8383 10.132C53.2058 3.49945 44.3847 -0.123047 35.0025 -0.123047ZM59.8197 13.3574C58.8736 14.7126 56.3241 17.704 51.12 19.9932C48.1734 11.3843 43.2822 5.4868 40.3302 2.49867C47.1027 3.59352 53.3458 6.76539 58.2917 11.7102C58.8244 12.2429 59.3286 12.7952 59.8197 13.3574ZM36.6978 67.894C36.4977 67.9038 36.2964 67.9027 36.0952 67.9093V47.0504C41.4961 47.1576 45.7552 48.0348 49.043 49.1909C45.2116 60.3252 37.9447 66.8363 36.6978 67.894ZM20.9587 49.1898C24.3056 48.0085 28.557 47.1543 33.9077 47.0493V67.9104C33.7064 67.9038 33.5041 67.9038 33.3039 67.8929C32.0537 66.833 24.7891 60.3209 20.9587 49.1898ZM33.3039 2.1082C33.5041 2.09836 33.7064 2.09727 33.9077 2.0907V22.9507C28.5067 22.8435 24.2477 21.9663 20.9598 20.8102C24.7902 9.68023 32.0516 3.16914 33.3039 2.1082ZM49.0441 20.8113C45.6972 21.9926 41.4458 22.8468 36.0952 22.9518V2.0907C36.2964 2.09727 36.4987 2.09727 36.6989 2.1082C37.9502 3.16805 45.2137 9.68133 49.0441 20.8113ZM36.0952 25.1382C41.6787 25.0354 46.1544 24.1571 49.7069 22.9212C50.6584 26.2243 51.2852 29.8938 51.3836 33.9057H36.0952V25.1382ZM33.9077 25.1382V33.9068H18.6181C18.7166 29.8938 19.3433 26.2254 20.2948 22.9223C23.8484 24.1571 28.3241 25.0354 33.9077 25.1382ZM16.4306 33.9068H2.09266C2.31469 27.0304 4.63234 20.5215 8.74813 15.1129C10.0869 16.8848 12.9438 19.863 18.2102 22.1195C17.1941 25.6424 16.5291 29.5788 16.4306 33.9068ZM16.4306 36.0943C16.5291 40.4223 17.193 44.3587 18.2102 47.8816C12.9438 50.138 10.0858 53.1163 8.74813 54.8882C4.63344 49.4796 2.31469 42.9707 2.09266 36.0943H16.4306ZM18.6181 36.0943H33.9077V44.8629C28.3241 44.9657 23.8484 45.844 20.2959 47.0799C19.3444 43.7757 18.7166 40.1073 18.6181 36.0943ZM36.0952 44.8629V36.0943H51.3847C51.2863 40.1073 50.6595 43.7757 49.708 47.0788C46.1544 45.844 41.6787 44.9657 36.0952 44.8629ZM53.5722 36.0943H67.9102C67.6794 43.1326 65.2359 49.6185 61.2448 54.8751C59.9006 53.101 57.0448 50.1326 51.7916 47.8816C52.8088 44.3587 53.4738 40.4223 53.5722 36.0943ZM53.5722 33.9068C53.4738 29.5788 52.8098 25.6424 51.7927 22.1195C57.0591 19.863 59.917 16.8848 61.2547 15.1129C65.3694 20.5215 67.6881 27.0304 67.9112 33.9079H53.5722V33.9068ZM29.6716 2.49867C26.7195 5.4868 21.8294 11.3854 18.8817 19.9954C17.2444 19.279 15.9045 18.5112 14.837 17.7849C12.2656 16.0382 10.8438 14.297 10.1875 13.353C10.6775 12.793 11.1806 12.2418 11.7122 11.7113C16.657 6.76539 22.9002 3.59461 29.6716 2.49867ZM10.1831 56.6437C11.1292 55.2896 13.6788 52.2971 18.8828 50.0079C21.8305 58.6168 26.7206 64.5143 29.6727 67.5035C22.9012 66.4087 16.657 63.2368 11.7111 58.292C11.1784 57.7593 10.6742 57.2059 10.1831 56.6437ZM35.0058 68.9068V69.0304V68.9068ZM40.3345 67.4991C43.2866 64.5099 48.1745 58.6124 51.1211 50.0068C52.7584 50.7232 54.0983 51.491 55.1658 52.2173C57.7252 53.9552 59.1459 55.6899 59.8055 56.6349C54.8738 62.282 48.0531 66.237 40.3345 67.4991Z" fill="#A9A9A9"/>
</g>
<defs>
<clipPath id="clip0_221_265">
<rect width="70" height="70" fill="white"/>
</clipPath>
</defs>
</svg>
