<svg width="43" height="210" viewBox="0 0 43 210" fill="none" xmlns="http://www.w3.org/2000/svg">
<path d="M24.1946 168.718L36.3527 157.509L48.4938 168.725L60.6009 157.516L72.7322 168.718L85 157.397V144.98L72.7566 156.276L72.7371 156.294L60.5936 145.079L48.4865 156.285L36.36 145.086L24.2019 156.294L12.0656 145.081L0 156.225L0.00243553 168.718L12.0656 157.514L24.1946 168.718Z" fill="#121312" fill-opacity="0.06"/>
<path d="M85 177.569L42.4342 188.431L0 177.693L0.0170487 188.458L21.1745 193.828L0 199.203V209.937L42.4342 199.224L85 210V199.246L63.694 193.828L85 188.391V177.569Z" fill="#121312" fill-opacity="0.06"/>
<path d="M63.6282 49.0328L85 29.2657V16.7611L63.6282 36.5282L24.197 0.0605469L0 22.4419V34.9466L24.197 12.5652L63.6282 49.0328Z" fill="#121312" fill-opacity="0.06"/>
<path d="M85 69.7449C78.8357 69.7449 75.538 67.1239 73.1317 65.2092C71.2709 63.7266 70.3357 62.9819 67.9976 62.9819C65.6595 62.9819 64.7266 63.7266 62.861 65.2092C60.4572 67.1239 57.1619 69.7449 50.9976 69.7449C44.8332 69.7449 41.538 67.1239 39.1317 65.2092C37.2709 63.7266 36.3332 62.9819 33.9976 62.9819C31.6619 62.9819 30.7266 63.7266 28.8635 65.2092C26.4572 67.1284 23.1619 69.7449 16.9976 69.7449C10.8332 69.7449 7.55014 67.1284 5.1341 65.2137C3.27092 63.7311 2.33567 62.9954 0 62.9954V52.1624C6.16433 52.1624 9.4596 54.7835 11.8659 56.6981C13.7266 58.1807 14.6643 58.9254 16.9976 58.9254C19.3308 58.9254 20.2685 58.1807 22.1341 56.6981C24.538 54.7835 27.8332 52.1624 33.9976 52.1624C40.1619 52.1624 43.4572 54.7835 45.8635 56.6958C47.7266 58.1785 48.6643 58.9232 50.9976 58.9232C53.3308 58.9232 54.2685 58.1785 56.1317 56.6936C58.538 54.7812 61.8332 52.1602 67.9976 52.1602C74.1619 52.1602 77.4499 54.7835 79.8659 56.6958C81.7291 58.1807 82.6643 58.9254 85 58.9254V69.7449Z" fill="#121312" fill-opacity="0.06"/>
<path d="M68.4845 110.84L49.8259 124.641L35.371 124.668L16.6856 110.842L13.4439 90.2182H71.7286L68.4845 110.84ZM0.399229 82.2515L5.43591 114.309C5.66605 115.77 6.48773 117.096 7.73505 118.019L29.5477 134.16C30.6706 134.99 32.0668 135.442 33.5054 135.44L51.7256 135.406C53.1544 135.404 54.5399 134.952 55.6541 134.126L77.4351 118.019C78.6838 117.097 79.5066 115.771 79.7366 114.309L84.7733 82.2515C84.8289 81.8999 84.8019 81.5413 84.6941 81.2002C84.5863 80.8591 84.4003 80.5435 84.1486 80.2747C83.897 80.006 83.5856 79.7905 83.2357 79.6428C82.8859 79.4951 82.5057 79.4188 82.121 79.4189H3.04909C2.66463 79.4191 2.28471 79.4957 1.93513 79.6435C1.58555 79.7913 1.27451 80.0069 1.02313 80.2756C0.771748 80.5443 0.58592 80.8598 0.478267 81.2008C0.370614 81.5417 0.343657 81.9001 0.399229 82.2515Z" fill="#121312" fill-opacity="0.06"/>
</svg>
