<svg width="45" height="45" viewBox="0 0 45 45" fill="none" xmlns="http://www.w3.org/2000/svg">
<path d="M22.9932 30.3546C19.925 30.3546 17.225 27.6546 17.225 23.3591C17.6668 23.0155 18.1823 22.6964 18.7468 22.4264C19.7286 21.96 21.0786 21.5182 22.7477 21.5182C25.9386 21.5182 28.025 23.6046 28.025 25.9364C28.025 28.2682 25.9386 30.3546 22.9932 30.3546ZM22.9932 31.5819C26.7977 31.5819 29.375 28.98 29.375 25.9364C29.375 22.8928 26.7977 20.2909 22.7477 20.2909C21.0786 20.2909 19.8023 20.6591 18.7959 21.0764C18.2559 21.3218 17.765 21.5918 17.3477 21.8864H17.225C17.225 17.5909 20.1705 14.6455 23.3614 14.6455C24.6623 14.6455 25.7177 15.0137 26.6014 15.4309C27.0677 15.6764 27.5095 15.9464 27.9023 16.2409L28.5159 15.2591C28.0986 14.9155 27.6077 14.5964 27.0923 14.3264C26.1841 13.86 24.9077 13.4182 23.3614 13.4182C19.3114 13.4182 15.875 16.8546 15.875 22.7455C15.875 28.3664 19.0659 31.5819 22.9932 31.5819Z" fill="#7D7D7D" fill-opacity="0.5"/>
<path d="M3.26443 11.3943L22.5 0.288675L41.7356 11.3943V33.6057L22.5 44.7113L3.26443 33.6057V11.3943Z" stroke="#7F7F7F" stroke-width="0.5"/>
</svg>
