<svg width="59" height="70" viewBox="0 0 59 70" fill="none" xmlns="http://www.w3.org/2000/svg">
<rect x="10.1172" width="9.10391" height="29.3348" rx="2" fill="#804A1F"/>
<path d="M0 29.1596L3.51757 53.4841C3.68021 54.5918 4.25094 55.5969 5.11581 56.2988L20.2777 68.5366C21.0563 69.168 22.0258 69.511 23.0247 69.5085H35.6823C36.676 69.506 37.6394 69.1634 38.415 68.5366L53.5484 56.2988C54.4154 55.5988 54.9867 54.5928 55.1466 53.4841L58.6499 29.1596C58.6888 28.8918 58.6701 28.6187 58.5951 28.3588C58.5202 28.099 58.3906 27.8584 58.2153 27.6535C58.04 27.4487 57.823 27.2843 57.5792 27.1715C57.3353 27.0587 57.0702 27.0002 56.8019 27H1.86224C1.59421 27.0001 1.32934 27.0585 1.08575 27.1714C0.842164 27.2842 0.625585 27.4487 0.450815 27.6538C0.276046 27.8588 0.147205 28.0995 0.073095 28.3594C-0.00101466 28.6193 -0.0186462 28.8922 0.0214051 29.1596H0ZM47.3338 50.8422L34.3623 61.3163H24.3162L11.3304 50.8422L9.08289 35.1849H49.5884L47.3338 50.8422Z" fill="#121312"/>
</svg>
