<svg width="63" height="54" viewBox="0 0 63 54" fill="none" xmlns="http://www.w3.org/2000/svg">
<path d="M11.7736 0C11.7736 3.89709 10.0154 5.98195 8.73604 7.49749C7.73921 8.67624 7.24471 9.26962 7.24471 10.7451C7.24471 12.2205 7.73921 12.8139 8.73604 13.9525C10.0233 15.5162 11.7736 17.6411 11.7736 21.4981C11.7736 25.3551 10.0154 27.4721 8.73604 28.9956C7.73921 30.1744 7.24471 30.7678 7.24471 32.2432C7.24471 33.7187 7.73921 34.312 8.73604 35.4507C10.0233 37.0063 11.7736 39.0912 11.7736 42.9883C11.7736 46.8854 10.0233 48.9702 8.74389 50.5178C7.74706 51.6886 7.25256 52.282 7.25256 53.7253H0C0 49.8282 1.7582 47.7514 3.0376 46.2278C4.03443 45.0491 4.52893 44.4557 4.52893 43.0204C4.52893 41.585 4.03443 40.9515 3.0376 39.8129C1.7582 38.2252 0 36.1403 0 32.2432C0 28.3461 1.7582 26.2613 3.0376 24.7377C4.03443 23.567 4.52893 22.9736 4.52893 21.5302C4.52893 20.0869 4.03443 19.4614 3.0376 18.3227C1.7582 16.727 0 14.6422 0 10.7451C0 6.84797 1.7582 4.81122 3.0376 3.24758C4.03443 2.06883 4.52893 1.47544 4.52893 0.0400935L11.7736 0Z" fill="#5E96CC"/>
<path d="M28.5238 0C28.5238 3.89709 26.7656 5.98195 25.4862 7.49749C24.4894 8.67624 23.9949 9.26962 23.9949 10.7451C23.9949 12.2205 24.4894 12.8139 25.4862 13.9525C26.7656 15.4761 28.5238 17.561 28.5238 21.4581C28.5238 25.3551 26.7656 27.432 25.4862 28.9555C24.4894 30.1343 23.9949 30.7277 23.9949 32.2031C23.9949 33.6786 24.4894 34.2719 25.4862 35.4106C26.7656 36.9261 28.5238 39.011 28.5238 42.9081C28.5238 46.8052 26.7656 48.9702 25.4862 50.5178C24.4894 51.6886 23.9949 52.282 23.9949 53.7253H16.7423C16.7423 49.8282 18.4927 47.7514 19.7799 46.2278C20.7689 45.0491 21.2712 44.4557 21.2712 43.0204C21.2712 41.585 20.7689 40.9515 19.7799 39.8129C18.8115 38.8319 18.0442 37.6637 17.5226 36.3764C17.0011 35.0891 16.7358 33.7086 16.7423 32.3154C16.7423 28.4183 18.4927 26.3334 19.7799 24.8099C20.7689 23.6391 21.2712 23.0458 21.2712 21.6024C21.2712 20.159 20.7689 19.5336 19.7799 18.3949C18.4927 16.8714 16.7423 14.7865 16.7423 10.8894C16.7423 6.99231 18.4927 4.81122 19.7799 3.24758C20.7689 2.06883 21.2712 1.47544 21.2712 0.0400935L28.5238 0Z" fill="#5E96CC"/>
<path d="M45.2581 0C45.2645 1.39318 44.9993 2.77371 44.4777 4.061C43.9562 5.34828 43.1888 6.51652 42.2205 7.49749C41.2315 8.67624 40.7291 9.26962 40.7291 10.7451C40.7291 12.2205 41.2315 12.8139 42.2205 13.9525C43.5077 15.4761 45.2581 17.561 45.2581 21.4581C45.2581 25.3551 43.5077 27.432 42.2205 28.9555C41.2315 30.1343 40.7291 30.7277 40.7291 32.2031C40.7291 33.6786 41.2315 34.2719 42.2205 35.4106C43.1888 36.3916 43.9562 37.5598 44.4777 38.8471C44.9993 40.1344 45.2645 41.5149 45.2581 42.9081C45.2581 46.8052 43.5077 48.89 42.2205 50.4136C41.2315 51.5843 40.7291 52.1777 40.7291 53.6211H33.4766C33.4766 49.724 35.2348 47.6471 36.5142 46.1236C37.511 44.9448 38.0055 44.3515 38.0055 42.9161C38.0055 41.4808 37.511 40.8473 36.5142 39.7086C35.2348 38.1931 33.4766 36.1082 33.4766 32.2111C33.4766 28.314 35.2348 26.2292 36.5142 24.7056C37.511 23.5349 38.0055 22.9415 38.0055 21.4981C38.0055 20.0548 37.511 19.4293 36.5142 18.2907C35.2348 16.7671 33.4766 14.6822 33.4766 10.7852C33.4766 6.88807 35.2348 4.81122 36.5142 3.24758C37.511 2.06883 38.0055 1.47544 38.0055 0.0400935L45.2581 0Z" fill="#5E96CC"/>
<path d="M62.008 0C62.008 3.89709 60.2498 5.98195 58.9704 7.49749C57.9736 8.67624 57.4791 9.26962 57.4791 10.7451C57.4791 12.2205 57.9736 12.8139 58.9704 13.9525C60.242 15.5162 62.008 17.6411 62.008 21.4981C62.008 25.3551 60.2498 27.4721 58.9704 28.9956C57.9736 30.1744 57.4791 30.7678 57.4791 32.2432C57.4791 33.7187 57.9736 34.312 58.9704 35.4507C60.242 37.0063 62.008 39.0912 62.008 42.9883C62.008 46.8854 60.242 48.9702 58.9626 50.5178C57.9657 51.6886 57.4712 52.282 57.4712 53.7253H50.2344C50.2344 49.8282 51.9926 47.7514 53.272 46.2278C54.2688 45.0491 54.7633 44.4557 54.7633 43.0204C54.7633 41.585 54.2688 40.9515 53.272 39.8129C51.9769 38.2252 50.2344 36.1403 50.2344 32.2432C50.2344 28.3461 51.9926 26.2613 53.272 24.7377C54.2688 23.567 54.7633 22.9736 54.7633 21.5302C54.7633 20.0869 54.2688 19.4614 53.272 18.3227C51.9769 16.727 50.2344 14.6422 50.2344 10.7451C50.2344 6.84797 51.9769 4.81122 53.2563 3.24758C54.2531 2.06883 54.7476 1.47544 54.7476 0.0400935L62.008 0Z" fill="#5E96CC"/>
</svg>
