<svg width="11" height="17" viewBox="0 0 11 17" fill="none" xmlns="http://www.w3.org/2000/svg">
<path d="M1.3197 0.271733L0.758972 0.82859C0.583857 1.00384 0.487384 1.23701 0.487384 1.4862C0.487384 1.73526 0.583856 1.9687 0.758972 2.14396L7.11149 8.4962L0.751919 14.8558C0.576804 15.0307 0.480469 15.2642 0.480469 15.5132C0.480469 15.7623 0.576803 15.9959 0.751918 16.171L1.30919 16.728C1.67158 17.0907 2.26189 17.0907 2.62428 16.728L10.2233 9.15617C10.3983 8.98119 10.5216 8.74803 10.5216 8.49676L10.5216 8.49386C10.5216 8.24466 10.3982 8.01149 10.2233 7.83652L2.64488 0.271733C2.4699 0.09648 2.22969 0.000282823 1.98063 6.18106e-06C1.73144 6.10481e-06 1.49454 0.0964797 1.3197 0.271733Z" fill="#121312"/>
</svg>
