<svg width="11" height="17" viewBox="0 0 11 17" fill="none" xmlns="http://www.w3.org/2000/svg">
<path d="M10.1608 16.7283L10.7215 16.1714C10.8966 15.9962 10.9931 15.763 10.9931 15.5138C10.9931 15.2647 10.8966 15.0313 10.7215 14.856L4.36898 8.5038L10.7286 2.14423C10.9037 1.96925 11 1.73581 11 1.48675C11 1.23769 10.9037 1.00411 10.7286 0.828998L10.1713 0.272002C9.80888 -0.0906676 9.21858 -0.0906678 8.85619 0.272002L1.25712 7.84383C1.08214 8.01881 0.958859 8.25197 0.958859 8.50324L0.958859 8.50615C0.958858 8.75534 1.08228 8.98851 1.25712 9.16348L8.83559 16.7283C9.01057 16.9035 9.25078 16.9997 9.49984 17C9.74903 17 9.98593 16.9035 10.1608 16.7283Z" fill="#121312"/>
</svg>
