<svg width="25" height="44" viewBox="0 0 25 44" fill="none" xmlns="http://www.w3.org/2000/svg">
<path d="M18.7019 15.7751L24.9841 9.40912V5.38023L18.7019 11.7496L7.11514 0.00390625L0.00390625 7.21245V11.238L7.11514 4.02946L18.7019 15.7751Z" fill="white"/>
<path d="M24.9835 22.4579C23.1702 22.4579 22.2024 21.6155 21.4956 20.997C20.9473 20.5223 20.6731 20.2816 19.9861 20.2816C19.2991 20.2816 19.025 20.5223 18.4767 20.997C17.7698 21.6155 16.8021 22.4579 14.9888 22.4579C13.1755 22.4579 12.2209 21.6155 11.5042 20.997C10.9559 20.5223 10.6817 20.2816 9.99471 20.2816C9.3077 20.2816 9.03356 20.5223 8.48527 20.997C7.77844 21.6155 6.81067 22.4579 4.99736 22.4579C3.18404 22.4579 2.21628 21.6155 1.50945 20.997C0.961157 20.5223 0.687013 20.2816 0 20.2816V16.7949C1.81001 16.7949 2.77778 17.6407 3.48461 18.2558C4.0329 18.7338 4.30704 18.9745 4.99405 18.9745C5.68107 18.9745 5.9453 18.7238 6.5068 18.2558C7.21363 17.6407 8.1814 16.7949 9.99471 16.7949C11.808 16.7949 12.7725 17.6407 13.4826 18.2558C14.0276 18.7338 14.3051 18.9745 14.9888 18.9745C15.6725 18.9745 15.9499 18.7238 16.5147 18.2558C17.2216 17.6407 18.1926 16.7949 20.0026 16.7949C21.8127 16.7949 22.7837 17.6407 23.4906 18.2558C24.0388 18.7338 24.313 18.9745 25 18.9745L24.9835 22.4579Z" fill="white"/>
<path d="M20.6373 0H16.7695V3.91537H20.6373V0Z" fill="white"/>
<path d="M0.139482 26.4848L1.6192 36.8062C1.68889 37.276 1.9306 37.7021 2.29631 37.9999L8.70402 43.1957C9.03338 43.4639 9.44395 43.6091 9.86666 43.6069H15.2174C15.6377 43.6065 16.0453 43.4615 16.3735 43.1957L22.7713 38.0099C23.1308 37.7093 23.3664 37.2836 23.4319 36.8163L24.9116 26.4948C24.9276 26.3816 24.9195 26.2662 24.8877 26.1564C24.856 26.0467 24.8013 25.9451 24.7274 25.8585C24.6535 25.772 24.5621 25.7025 24.4594 25.6548C24.3567 25.6071 24.2451 25.5823 24.1321 25.582H0.918977C0.806938 25.5825 0.69628 25.6071 0.594359 25.6542C0.492439 25.7013 0.401592 25.7698 0.327857 25.8552C0.254122 25.9406 0.199189 26.0409 0.16671 26.1495C0.13423 26.258 0.124949 26.3723 0.139482 26.4848ZM20.152 35.6828L14.6625 40.123H10.4149L4.92215 35.6861L3.9676 29.0426H21.0967L20.152 35.6828Z" fill="white"/>
</svg>
