<svg width="55" height="49" viewBox="0 0 55 49" fill="none" xmlns="http://www.w3.org/2000/svg">
<g clip-path="url(#clip0_103_925)">
<path d="M19.5589 36.3599L13.2653 25.2998L9.13239 11.9562L0.0117188 6.86871L2.6032 2.19336L13.5884 8.32131L18.179 23.1581L24.1832 33.7047L19.5589 36.3599Z" fill="#2E662B"/>
<path d="M8.25781 9.24072L9.30787 0.0183954L14.6322 0.00488281L13.5552 9.84203L8.25781 9.24072Z" fill="#2E662B"/>
<path d="M14.2648 13.6671L2.73438 13.6934L2.74647 19.0443L14.2769 19.0181L14.2648 13.6671Z" fill="#2E662B"/>
<path d="M19.8896 9.17139L11.8008 17.9238L15.7092 21.5629L23.798 12.8105L19.8896 9.17139Z" fill="#2E662B"/>
<path d="M7.47594 22.5226L6.91406 27.8438L15.8233 28.7915L16.3852 23.4704L7.47594 22.5226Z" fill="#2E662B"/>
<path d="M46.5598 34.0164L43.5038 24.9157L42.6894 18.1526L27.8203 7.63987L30.8964 3.26855L47.6973 15.1461L48.7272 23.7266L51.5946 32.253L46.5598 34.0164Z" fill="#2E662B"/>
<path d="M38.0198 3.36529L37.7852 14.335L43.115 14.4498L43.3496 3.48015L38.0198 3.36529Z" fill="#2E662B"/>
<path d="M43.0122 12.7949H31.8789V18.1459H43.0122V12.7949Z" fill="#2E662B"/>
<path d="M37.038 19.9221L35.2383 24.959L45.3441 28.5969L47.1438 23.5601L37.038 19.9221Z" fill="#2E662B"/>
<path d="M51.2853 10.1682L44.8203 15.9053L48.3514 19.9142L54.8163 14.1771L51.2853 10.1682Z" fill="#2E662B"/>
<path d="M22.9419 38.8504L18.3203 43.4893L22.9419 48.1281L27.5635 43.4893L22.9419 38.8504Z" fill="#804A1F"/>
<path d="M32.0903 38.8504L27.4688 43.4893L32.0903 48.1281L36.7119 43.4893L32.0903 38.8504Z" fill="#804A1F"/>
<path d="M41.231 38.8484L36.6094 43.4873L41.231 48.1262L45.8526 43.4873L41.231 38.8484Z" fill="#804A1F"/>
<path d="M50.3794 38.8494L45.7578 43.4883L50.3794 48.1271L55.001 43.4883L50.3794 38.8494Z" fill="#804A1F"/>
<path d="M13.7857 38.8465L9.16406 43.4854L13.7857 48.1242L18.4073 43.4854L13.7857 38.8465Z" fill="#804A1F"/>
<path d="M4.62159 38.8484L0 43.4873L4.6216 48.1262L9.24319 43.4873L4.62159 38.8484Z" fill="#804A1F"/>
</g>
<defs>
<clipPath id="clip0_103_925">
<rect width="55" height="48.125" fill="white" transform="translate(0 0.00488281)"/>
</clipPath>
</defs>
</svg>
