<svg width="45" height="51" viewBox="0 0 45 51" fill="none" xmlns="http://www.w3.org/2000/svg">
<g clip-path="url(#clip0_103_949)">
<path d="M0 19.8361L2.69825 38.3934C2.82301 39.2385 3.2608 40.0054 3.92423 40.5408L15.5546 49.8771C16.1518 50.3589 16.8955 50.6205 17.6618 50.6186H27.3711C28.1333 50.6167 28.8724 50.3553 29.4673 49.8771L41.0758 40.5408C41.7409 40.0068 42.1791 39.2393 42.3018 38.3934L44.9891 19.8361C45.0189 19.6318 45.0046 19.4234 44.9471 19.2251C44.8895 19.0269 44.7902 18.8434 44.6557 18.6871C44.5212 18.5308 44.3548 18.4053 44.1677 18.3193C43.9806 18.2333 43.7773 18.1887 43.5715 18.1885H1.42848C1.22288 18.1885 1.01971 18.2331 0.832859 18.3192C0.646005 18.4053 0.479872 18.5308 0.345811 18.6872C0.211749 18.8437 0.112917 19.0273 0.0560696 19.2256C-0.000778324 19.4238 -0.0143031 19.6321 0.0164194 19.8361H0ZM36.3087 36.3779L26.3586 44.3687H18.6524L8.69132 36.3779L6.96728 24.4328H38.0382L36.3087 36.3779Z" fill="white"/>
<path d="M18.9767 9.41812H13.0329C13.0514 8.95399 12.9762 8.49089 12.8119 8.05661C12.6477 7.62233 12.3977 7.22583 12.0769 6.89089C11.7562 6.55594 11.3713 6.28946 10.9455 6.10743C10.5196 5.9254 10.0614 5.83156 9.59851 5.83156C9.1356 5.83156 8.67745 5.9254 8.25157 6.10743C7.82568 6.28946 7.44082 6.55594 7.12009 6.89089C6.79936 7.22583 6.54936 7.62233 6.38508 8.05661C6.22081 8.49089 6.14566 8.95399 6.16413 9.41812H0.214844C0.214844 6.92158 1.20319 4.52728 2.96245 2.76196C4.72172 0.996632 7.1078 0.00488281 9.59577 0.00488281C12.0838 0.00488281 14.4698 0.996632 16.2291 2.76196C17.9884 4.52728 18.9767 6.92158 18.9767 9.41812Z" fill="#5E96CC"/>
<path d="M31.6994 9.41812H25.7555C25.7555 8.5034 25.3934 7.62615 24.7488 6.97934C24.1043 6.33254 23.23 5.96917 22.3184 5.96917C21.4068 5.96917 20.5326 6.33254 19.888 6.97934C19.2434 7.62615 18.8813 8.5034 18.8813 9.41812H12.9375C12.9375 6.92158 13.9258 4.52728 15.6851 2.76196C17.4444 0.996632 19.8305 0.00488281 22.3184 0.00488281C24.8064 0.00488281 27.1925 0.996632 28.9517 2.76196C30.711 4.52728 31.6994 6.92158 31.6994 9.41812Z" fill="#5E96CC"/>
<path d="M44.7853 9.41812H38.8579C38.8579 8.5034 38.4958 7.62615 37.8512 6.97934C37.2066 6.33254 36.3324 5.96916 35.4208 5.96916C34.5092 5.96916 33.635 6.33254 32.9904 6.97934C32.3458 7.62615 31.9837 8.5034 31.9837 9.41812H26.0234C26.0234 6.92158 27.0118 4.52728 28.771 2.76196C30.5303 0.996632 32.9164 0.00488281 35.4044 0.00488281C37.8923 0.00488281 40.2784 0.996632 42.0377 2.76196C43.7969 4.52728 44.7853 6.92158 44.7853 9.41812Z" fill="#5E96CC"/>
</g>
<defs>
<clipPath id="clip0_103_949">
<rect width="45" height="50.625" fill="white" transform="translate(0 0.00488281)"/>
</clipPath>
</defs>
</svg>
