<svg width="45" height="40" viewBox="0 0 45 40" fill="none" xmlns="http://www.w3.org/2000/svg">
<g clip-path="url(#clip0_103_956)">
<path d="M8.54539 0.00488281C8.54539 2.83342 7.26927 4.34662 6.34068 5.44661C5.61717 6.30215 5.25826 6.73283 5.25826 7.80372C5.25826 8.8746 5.61717 9.30529 6.34068 10.1317C7.27497 11.2666 8.54539 12.8089 8.54539 15.6084C8.54539 18.4078 7.26927 19.9443 6.34068 21.0501C5.61717 21.9056 5.25826 22.3363 5.25826 23.4072C5.25826 24.4781 5.61717 24.9088 6.34068 25.7352C7.27497 26.8643 8.54539 28.3775 8.54539 31.206C8.54539 34.0346 7.27497 35.5478 6.34637 36.6711C5.62286 37.5208 5.26396 37.9515 5.26396 38.9991H0C0 36.1705 1.27611 34.6631 2.20471 33.5573C2.92822 32.7018 3.28712 32.2711 3.28712 31.2293C3.28712 30.1875 2.92822 29.7278 2.20471 28.9013C1.27611 27.749 0 26.2357 0 23.4072C0 20.5787 1.27611 19.0655 2.20471 17.9597C2.92822 17.1099 3.28712 16.6793 3.28712 15.6317C3.28712 14.5841 2.92822 14.1301 2.20471 13.3036C1.27611 12.1455 0 10.6323 0 7.80372C0 4.97519 1.27611 3.4969 2.20471 2.36199C2.92822 1.50645 3.28712 1.07577 3.28712 0.0339829L8.54539 0.00488281Z" fill="#5E96CC"/>
<path d="M20.7035 0.00488281C20.7035 2.83342 19.4274 4.34662 18.4988 5.44661C17.7753 6.30215 17.4164 6.73283 17.4164 7.80372C17.4164 8.8746 17.7753 9.30529 18.4988 10.1317C19.4274 11.2375 20.7035 12.7507 20.7035 15.5793C20.7035 18.4078 19.4274 19.9152 18.4988 21.021C17.7753 21.8765 17.4164 22.3072 17.4164 23.3781C17.4164 24.449 17.7753 24.8797 18.4988 25.7061C19.4274 26.8061 20.7035 28.3193 20.7035 31.1478C20.7035 33.9764 19.4274 35.5478 18.4988 36.6711C17.7753 37.5208 17.4164 37.9515 17.4164 38.9991H12.1524C12.1524 36.1705 13.4228 34.6631 14.3571 33.5573C15.0749 32.7018 15.4396 32.2711 15.4396 31.2293C15.4396 30.1875 15.0749 29.7278 14.3571 28.9013C13.6543 28.1893 13.0973 27.3414 12.7188 26.4071C12.3403 25.4728 12.1477 24.4708 12.1524 23.4596C12.1524 20.6311 13.4228 19.1179 14.3571 18.012C15.0749 17.1623 15.4396 16.7316 15.4396 15.684C15.4396 14.6364 15.0749 14.1825 14.3571 13.356C13.4228 12.2502 12.1524 10.737 12.1524 7.90848C12.1524 5.07995 13.4228 3.4969 14.3571 2.36199C15.0749 1.50645 15.4396 1.07577 15.4396 0.0339829L20.7035 0.00488281Z" fill="#5E96CC"/>
<path d="M32.848 0.00488281C32.8527 1.01606 32.6601 2.01806 32.2816 2.95238C31.903 3.8867 31.3461 4.73461 30.6432 5.44661C29.9254 6.30215 29.5608 6.73283 29.5608 7.80372C29.5608 8.8746 29.9254 9.30529 30.6432 10.1317C31.5775 11.2375 32.848 12.7507 32.848 15.5793C32.848 18.4078 31.5775 19.9152 30.6432 21.021C29.9254 21.8765 29.5608 22.3072 29.5608 23.3781C29.5608 24.449 29.9254 24.8797 30.6432 25.7061C31.3461 26.4181 31.903 27.266 32.2816 28.2003C32.6601 29.1347 32.8527 30.1367 32.848 31.1478C32.848 33.9764 31.5775 35.4896 30.6432 36.5954C29.9254 37.4451 29.5608 37.8758 29.5608 38.9234H24.2969C24.2969 36.0949 25.573 34.5875 26.5016 33.4817C27.2251 32.6261 27.584 32.1955 27.584 31.1537C27.584 30.1119 27.2251 29.6521 26.5016 28.8257C25.573 27.7257 24.2969 26.2125 24.2969 23.3839C24.2969 20.5554 25.573 19.0422 26.5016 17.9364C27.2251 17.0867 27.584 16.656 27.584 15.6084C27.584 14.5608 27.2251 14.1068 26.5016 13.2804C25.573 12.1746 24.2969 10.6614 24.2969 7.83282C24.2969 5.00429 25.573 3.4969 26.5016 2.36199C27.2251 1.50645 27.584 1.07577 27.584 0.0339829L32.848 0.00488281Z" fill="#5E96CC"/>
<path d="M45.0063 0.00488281C45.0063 2.83342 43.7302 4.34662 42.8016 5.44661C42.0781 6.30215 41.7192 6.73283 41.7192 7.80372C41.7192 8.8746 42.0781 9.30529 42.8016 10.1317C43.7245 11.2666 45.0063 12.8089 45.0063 15.6084C45.0063 18.4078 43.7302 19.9443 42.8016 21.0501C42.0781 21.9056 41.7192 22.3363 41.7192 23.4072C41.7192 24.4781 42.0781 24.9088 42.8016 25.7352C43.7245 26.8643 45.0063 28.3775 45.0063 31.206C45.0063 34.0346 43.7245 35.5478 42.7959 36.6711C42.0724 37.5208 41.7135 37.9515 41.7135 38.9991H36.4609C36.4609 36.1705 37.737 34.6631 38.6656 33.5573C39.3892 32.7018 39.7481 32.2711 39.7481 31.2293C39.7481 30.1875 39.3892 29.7278 38.6656 28.9013C37.7257 27.749 36.4609 26.2357 36.4609 23.4072C36.4609 20.5787 37.737 19.0655 38.6656 17.9597C39.3892 17.1099 39.7481 16.6793 39.7481 15.6317C39.7481 14.5841 39.3892 14.1301 38.6656 13.3036C37.7257 12.1455 36.4609 10.6323 36.4609 7.80372C36.4609 4.97519 37.7257 3.4969 38.6543 2.36199C39.3778 1.50645 39.7367 1.07577 39.7367 0.0339829L45.0063 0.00488281Z" fill="#5E96CC"/>
</g>
<defs>
<clipPath id="clip0_103_956">
<rect width="45" height="39" fill="white" transform="translate(0 0.00488281)"/>
</clipPath>
</defs>
</svg>
