<svg width="50" height="44" viewBox="0 0 50 44" fill="none" xmlns="http://www.w3.org/2000/svg">
<path d="M37.4038 30.781L49.9682 18.3583V10.4963L37.4038 22.9255L14.2303 0.00488281L0.0078125 14.0717V21.9272L14.2303 7.86038L37.4038 30.781Z" fill="#076C26"/>
<path d="M49.967 43.8259C46.3403 43.8259 44.4048 42.1818 42.9911 40.9747C41.8946 40.0483 41.3463 39.5785 39.9723 39.5785C38.5982 39.5785 38.0499 40.0483 36.9534 40.9747C35.5397 42.1818 33.6042 43.8259 29.9775 43.8259C26.3509 43.8259 24.4418 42.1818 23.0083 40.9747C21.9117 40.0483 21.3635 39.5785 19.9894 39.5785C18.6154 39.5785 18.0671 40.0483 16.9705 40.9747C15.5569 42.1818 13.6213 43.8259 9.99471 43.8259C6.36808 43.8259 4.43255 42.1818 3.01889 40.9747C1.92231 40.0483 1.37403 39.5785 0 39.5785V32.7734C3.62003 32.7734 5.55556 34.4241 6.96922 35.6246C8.06579 36.5576 8.61408 37.0274 9.98811 37.0274C11.3621 37.0274 11.8906 36.5381 13.0136 35.6246C14.4273 34.4241 16.3628 32.7734 19.9894 32.7734C23.6161 32.7734 25.545 34.4241 26.9653 35.6246C28.0552 36.5576 28.6101 37.0274 29.9775 37.0274C31.345 37.0274 31.8999 36.5381 33.0295 35.6246C34.4431 34.4241 36.3853 32.7734 40.0053 32.7734C43.6253 32.7734 45.5674 34.4241 46.9811 35.6246C48.0777 36.5576 48.626 37.0274 50 37.0274L49.967 43.8259Z" fill="#5394D1"/>
<path d="M41.2667 0H33.5312V7.64019H41.2667V0Z" fill="#F17C00"/>
</svg>
